<?xml version="1.0" standalone="no"?>
<!DOCTYPE svg PUBLIC "-//W3C//DTD SVG 20010904//EN"
 "http://www.w3.org/TR/2001/REC-SVG-20010904/DTD/svg10.dtd">
<svg version="1.0" xmlns="http://www.w3.org/2000/svg"
 width="298.000000pt" height="298.000000pt" viewBox="0 0 298.000000 298.000000"
 preserveAspectRatio="xMidYMid meet">
<metadata>
Created by potrace 1.11, written by Peter Selinger 2001-2013
</metadata>
<g transform="translate(0.000000,298.000000) scale(0.100000,-0.100000)"
fill="#000000" stroke="none">
<path d="M1225 2915 c-11 -13 -26 -24 -32 -25 -7 0 -13 -4 -13 -10 0 -5 -7
-10 -16 -10 -8 0 -13 -4 -10 -9 8 -13 42 -6 39 8 -2 6 2 11 7 11 6 0 10 -5 10
-10 0 -6 11 -3 24 7 13 10 22 21 20 24 -2 4 3 10 11 13 13 4 13 2 5 -14 -8
-15 -7 -18 3 -15 7 3 13 15 14 26 2 16 -2 19 -19 13 -14 -4 -18 -2 -14 5 13
21 -9 11 -29 -14z m25 2 c0 -2 -10 -12 -22 -23 l-23 -19 19 23 c18 21 26 27
26 19z"/>
<path d="M1291 2903 c4 -23 -3 -31 -26 -29 -14 2 -30 -3 -36 -10 -6 -8 -15
-11 -20 -9 -4 3 -15 -8 -24 -24 -17 -33 -19 -45 -7 -37 12 7 38 -12 29 -21 -5
-4 -12 -1 -17 7 -6 9 -10 10 -10 3 0 -22 23 -26 37 -8 14 21 18 39 5 31 -15
-9 -33 10 -26 28 5 13 9 15 15 5 10 -16 42 -21 36 -6 -3 7 -10 11 -16 9 -7 -1
-10 2 -7 7 3 5 14 8 24 6 9 -1 26 2 37 8 11 6 24 11 28 12 4 0 12 7 17 15 8
12 10 12 16 -3 3 -9 10 -15 14 -12 5 3 11 1 15 -4 3 -6 12 -8 20 -4 8 3 15 0
15 -6 0 -6 5 -11 10 -11 24 0 7 20 -27 31 -21 6 -42 14 -48 18 -16 9 -55 12
-54 4z"/>
<path d="M1325 2870 c-3 -6 -11 -8 -16 -5 -5 4 -12 -1 -15 -9 -3 -9 -9 -14
-13 -11 -8 4 -40 -45 -38 -57 1 -4 -8 -15 -20 -23 -19 -14 -26 -14 -42 -3 -10
7 -19 15 -20 18 -1 3 -4 16 -8 28 -4 18 -8 20 -14 10 -6 -9 -9 -9 -9 -1 0 20
20 26 26 8 6 -13 8 -14 15 -3 5 7 9 15 9 18 0 9 -44 10 -50 2 -3 -4 -18 -15
-33 -25 -15 -10 -25 -22 -22 -27 3 -4 -1 -10 -7 -13 -7 -2 -10 -7 -7 -11 4 -4
14 0 22 9 10 9 18 11 22 5 8 -13 25 -13 25 0 0 6 -6 10 -14 10 -8 0 -18 5 -22
12 -5 8 -2 9 12 4 10 -5 24 -9 31 -9 6 0 9 -6 6 -12 -2 -7 3 -15 13 -19 13 -5
14 -9 4 -21 -14 -17 0 -21 17 -4 8 8 15 5 25 -10 8 -12 18 -18 22 -13 4 4 11
7 14 8 20 3 92 38 92 45 0 4 8 6 18 4 9 -1 32 6 50 16 18 10 40 19 48 19 8 0
14 4 14 10 0 5 7 7 15 4 8 -4 15 -1 15 7 0 7 -3 10 -6 6 -4 -3 -13 1 -21 9
-12 11 -18 12 -29 3 -11 -9 -18 -8 -29 1 -8 7 -15 9 -15 5 0 -4 -7 -2 -15 5
-8 7 -15 9 -15 5 0 -4 -6 -2 -14 4 -10 8 -16 9 -21 1z m11 -8 c-2 -4 5 -14 16
-21 19 -12 20 -11 14 6 -5 15 -4 16 6 3 11 -13 33 -17 61 -11 12 2 17 1 17 -4
0 -3 -2 -4 -4 -2 -2 1 -12 -5 -22 -14 -26 -23 -68 -44 -60 -30 11 17 -9 13
-35 -8 -24 -18 -30 -21 -48 -21 -5 0 -16 -7 -24 -15 -13 -13 -16 -13 -21 1 -3
8 1 17 9 20 8 4 15 10 15 16 0 5 -6 6 -12 2 -8 -4 -10 -3 -5 2 5 5 13 10 18
10 5 1 14 2 20 3 5 0 7 6 4 11 -4 6 -12 8 -18 4 -7 -3 -3 2 7 10 25 20 46 5
26 -19 -16 -19 -1 -19 24 0 18 14 18 15 -5 35 -13 12 -19 19 -12 16 6 -4 14
-2 18 4 3 5 8 10 11 10 3 0 3 -4 0 -8z"/>
<path d="M1344 2821 c0 -13 8 -17 28 -16 32 2 45 11 33 23 -4 4 -10 1 -12 -5
-3 -7 -9 -13 -14 -13 -6 0 -7 6 -3 13 4 6 4 9 -1 5 -4 -4 -13 -4 -19 2 -8 6
-12 3 -12 -9z"/>
<path d="M1309 2783 c-13 -16 -12 -17 4 -4 9 7 17 15 17 17 0 8 -8 3 -21 -13z"/>
<path d="M1267 2776 c-4 -10 -1 -13 9 -9 15 6 19 23 5 23 -5 0 -11 -7 -14 -14z"/>
<path d="M1805 2863 c-643 -187 -1215 -513 -1667 -949 -67 -65 -76 -78 -68
-97 4 -12 25 -76 46 -142 166 -535 482 -1066 870 -1465 l121 -124 104 29 c435
120 857 328 1214 599 108 82 265 216 265 226 0 15 -79 76 -134 103 -200 98
-334 48 -616 -233 -132 -132 -215 -189 -336 -231 -235 -83 -499 -51 -702 85
-88 59 -138 106 -201 189 -95 126 -147 265 -157 420 -16 237 64 446 235 618
245 245 605 304 913 149 165 -82 269 -188 369 -376 100 -188 209 -317 303
-360 94 -43 223 -31 353 32 32 16 59 29 61 30 5 3 -53 163 -100 279 -175 424
-445 841 -754 1161 l-69 72 -50 -15z m41 -208 c67 -51 95 -127 74 -203 -29
-108 -151 -170 -252 -128 -155 65 -157 281 -3 353 48 22 138 11 181 -22z"/>
<path d="M1714 2593 c-32 -6 -64 -46 -71 -88 -4 -27 -3 -36 5 -31 7 4 10 2 7
-6 -11 -28 78 -81 99 -60 4 4 15 7 24 7 22 0 60 59 57 88 -7 65 -57 102 -121
90z"/>
<path d="M1012 2735 c-17 -19 -34 -35 -36 -35 -8 0 -56 -47 -56 -54 0 -9 15
-7 47 6 15 6 32 12 37 12 16 2 17 23 1 23 -8 0 -15 -4 -15 -9 0 -5 -5 -6 -11
-2 -8 4 -7 9 2 15 7 4 17 5 23 2 5 -4 7 1 3 11 -5 11 -3 15 5 10 7 -5 8 -3 3
6 -5 8 -4 11 3 6 6 -3 18 1 26 10 11 10 16 11 16 3 0 -8 7 -6 19 5 16 14 23
15 38 6 17 -10 16 -10 -3 -5 -14 4 -21 1 -21 -10 0 -9 6 -14 14 -11 8 3 12 2
8 -3 -3 -5 -2 -11 2 -14 5 -2 2 -2 -6 0 -7 2 -20 -2 -27 -8 -10 -8 -14 -8 -14
0 0 6 5 11 12 11 15 0 1 13 -17 16 -8 1 -13 -6 -12 -17 1 -10 5 -19 10 -19 4
0 5 -5 1 -12 -4 -7 -3 -8 4 -4 7 4 21 9 32 12 11 2 30 7 43 10 12 3 30 6 40 6
9 -1 17 5 17 13 0 21 -19 28 -26 10 -5 -12 -9 -13 -20 -4 -11 9 -12 15 -3 26
10 11 8 12 -6 7 -11 -5 -16 -4 -12 3 7 11 -49 11 -60 0 -3 -4 -12 -2 -18 3 -9
8 -21 1 -43 -25z m38 21 c0 -2 -8 -10 -17 -17 -16 -13 -17 -12 -4 4 13 16 21
21 21 13z m100 -47 c0 -6 -4 -7 -10 -4 -5 3 -10 11 -10 16 0 6 5 7 10 4 6 -3
10 -11 10 -16z m-174 -41 c4 -6 3 -8 -4 -4 -6 3 -13 2 -17 -4 -3 -5 -11 -10
-18 -10 -6 0 -2 7 9 15 23 18 21 17 30 3z"/>
<path d="M1026 2711 c-8 -12 3 -41 15 -41 5 0 9 5 9 10 0 6 -6 10 -12 10 -10
0 -9 3 1 9 8 5 9 11 3 15 -6 3 -13 2 -16 -3z"/>
<path d="M2098 2714 c6 -3 12 -12 12 -20 0 -7 9 -19 20 -26 11 -7 20 -19 20
-27 0 -10 3 -11 14 -2 12 10 13 8 9 -8 -3 -12 -1 -21 5 -21 6 0 13 -8 16 -17
3 -10 16 -29 29 -43 12 -14 34 -41 47 -60 38 -55 45 -61 61 -47 11 10 11 9 0
-5 -14 -19 -6 -42 11 -32 6 4 8 2 4 -4 -3 -6 1 -18 10 -26 8 -9 13 -16 9 -16
-4 0 1 -7 9 -16 9 -8 16 -22 16 -30 0 -8 4 -14 8 -14 5 0 14 -12 20 -26 7 -14
17 -22 22 -19 5 3 7 0 4 -8 -3 -8 1 -21 9 -29 8 -8 24 -33 36 -56 13 -26 26
-40 33 -36 7 4 8 3 4 -4 -6 -10 28 -92 38 -92 1 0 -5 24 -15 53 -10 28 -18 60
-19 70 0 9 -5 17 -11 17 -5 0 -8 3 -5 8 5 8 -26 108 -38 119 -3 3 -6 15 -6 25
0 11 -3 17 -7 15 -5 -3 -9 6 -9 19 -1 13 -10 41 -20 62 -10 20 -19 42 -19 47
-1 6 -7 9 -15 7 -11 -3 -11 0 -1 12 10 12 9 18 -6 33 -10 11 -19 30 -21 44 -1
13 -7 26 -12 27 -6 2 -10 9 -10 15 0 6 -10 32 -22 59 -20 44 -24 48 -57 49
-20 0 -70 2 -111 4 -41 3 -69 2 -62 -1z m68 -30 c1 -9 0 -13 -4 -10 -3 4 -7
14 -8 22 -1 9 0 13 4 10 3 -4 7 -14 8 -22z m140 -24 c0 -12 -4 -16 -9 -11 -5
5 -6 14 -3 20 10 15 12 14 12 -9z m-31 0 c3 -6 -1 -7 -9 -4 -18 7 -21 14 -7
14 6 0 13 -4 16 -10z m-9 -42 c4 -6 3 -8 -4 -4 -6 3 -15 -2 -21 -11 -6 -10
-11 -13 -11 -7 0 9 19 34 26 34 2 0 6 -5 10 -12z m38 4 c3 -5 -1 -9 -9 -9 -8
0 -12 4 -9 9 3 4 7 8 9 8 2 0 6 -4 9 -8z m20 -68 c3 -8 2 -12 -4 -9 -6 3 -10
10 -10 16 0 14 7 11 14 -7z m-37 -29 c0 -8 -4 -12 -9 -9 -5 3 -6 10 -3 15 9
13 12 11 12 -6z m93 -39 c0 -2 -8 -10 -17 -17 -16 -13 -17 -12 -4 4 13 16 21
21 21 13z m30 -130 c-7 -7 -13 -7 -20 0 -6 6 -3 10 10 10 13 0 16 -4 10 -10z
m35 -65 c3 -5 2 -12 -3 -15 -5 -3 -9 1 -9 9 0 17 3 19 12 6z m60 -91 c3 -5 1
-10 -4 -10 -6 0 -11 5 -11 10 0 6 2 10 4 10 3 0 8 -4 11 -10z"/>
<path d="M885 2562 c-27 -9 -52 -20 -53 -24 -2 -5 -7 -6 -12 -3 -10 6 -164
-45 -168 -56 -2 -5 -8 -7 -12 -4 -5 3 -25 -1 -45 -9 -19 -8 -37 -15 -40 -16
-4 -1 -64 -26 -127 -53 -16 -7 -28 -15 -28 -19 0 -4 -6 -5 -14 -2 -7 3 -21 -2
-30 -11 -9 -9 -16 -13 -16 -8 0 4 -7 -1 -15 -11 -8 -11 -15 -15 -15 -9 0 7
-17 2 -40 -10 -40 -22 -51 -41 -27 -50 8 -4 6 -6 -4 -6 -12 -1 -16 -10 -15
-33 2 -24 6 -33 19 -32 9 1 14 -3 11 -8 -3 -5 -12 -7 -20 -4 -11 4 -14 -8 -14
-62 1 -64 1 -66 18 -47 14 16 103 89 170 140 8 5 25 20 38 32 13 12 24 19 24
16 0 -3 9 2 20 12 11 10 17 22 13 28 -3 6 -1 7 5 3 13 -8 94 43 87 55 -3 4 0
11 6 15 8 4 9 3 5 -4 -4 -7 -3 -12 3 -12 5 0 15 8 20 18 6 9 11 14 11 9 0 -4
18 5 40 19 22 15 37 31 33 37 -4 6 0 8 11 4 10 -4 19 -1 22 7 3 7 10 13 17 13
7 0 42 19 80 41 37 23 72 42 77 42 5 0 12 5 15 10 3 6 5 10 3 9 -2 0 -25 -8
-53 -17z m-71 -40 c3 -5 -1 -9 -9 -9 -8 0 -12 4 -9 9 3 4 7 8 9 8 2 0 6 -4 9
-8z m-44 -18 c0 -8 -19 -13 -24 -6 -3 5 1 9 9 9 8 0 15 -2 15 -3z m-40 -8 c0
-2 -8 -10 -17 -17 -16 -13 -17 -12 -4 4 13 16 21 21 21 13z m-103 -41 c0 -8
-4 -12 -9 -9 -5 3 -6 10 -3 15 9 13 12 11 12 -6z m23 -37 c0 -4 -4 -8 -9 -8
-6 0 -12 4 -15 8 -3 5 1 9 9 9 8 0 15 -4 15 -9z m-40 -12 c0 -2 -7 -7 -16 -10
-8 -3 -12 -2 -9 4 6 10 25 14 25 6z m-156 -24 c3 -5 -1 -9 -9 -9 -8 0 -12 4
-9 9 3 4 7 8 9 8 2 0 6 -4 9 -8z m31 -2 c3 -5 1 -10 -4 -10 -6 0 -11 5 -11 10
0 6 2 10 4 10 3 0 8 -4 11 -10z m-11 -38 c3 -5 -1 -9 -9 -9 -8 0 -15 4 -15 9
0 4 4 8 9 8 6 0 12 -4 15 -8z m60 0 c3 -5 -1 -9 -9 -9 -8 0 -12 4 -9 9 3 4 7
8 9 8 2 0 6 -4 9 -8z m-164 -43 c0 -4 -9 -7 -19 -6 -11 0 -18 4 -16 7 6 9 35
8 35 -1z m35 3 c-3 -3 0 -11 6 -19 17 -20 5 -16 -14 5 -15 16 -15 19 -2 19 8
0 13 -3 10 -5z m-124 -29 c13 -16 12 -17 -3 -4 -10 7 -18 15 -18 17 0 8 8 3
21 -13z m109 -7 c0 -2 -7 -7 -16 -10 -8 -3 -12 -2 -9 4 6 10 25 14 25 6z
m-143 -21 c0 -8 -4 -12 -9 -9 -5 3 -6 10 -3 15 9 13 12 11 12 -6z m117 -34
c-2 -3 -12 3 -22 13 -16 17 -16 18 5 5 12 -7 20 -15 17 -18z m-113 -48 c13
-16 12 -17 -3 -4 -10 7 -18 15 -18 17 0 8 8 3 21 -13z"/>
<path d="M2636 2008 c9 -14 13 -30 19 -68 1 -14 4 -27 5 -30 1 -3 2 -8 1 -12
0 -5 6 -8 14 -8 8 0 15 -5 15 -11 0 -6 -7 -9 -14 -6 -10 4 -13 1 -9 -9 3 -7 9
-14 13 -14 5 0 7 -12 4 -27 -4 -23 -3 -25 11 -13 9 7 12 16 7 19 -5 3 -8 17
-7 31 2 14 -4 33 -13 43 -12 14 -13 17 -1 17 11 0 11 2 -1 10 -12 8 -10 9 7 7
12 -2 26 -7 30 -11 5 -4 2 -6 -6 -4 -7 2 -16 -3 -18 -10 -3 -7 -1 -12 4 -10 4
1 19 -2 32 -6 17 -6 20 -10 11 -16 -9 -6 -6 -10 10 -15 18 -6 20 -9 9 -17 -11
-8 -10 -9 4 -4 12 4 16 2 11 -6 -5 -7 -3 -8 6 -3 9 6 11 4 5 -5 -5 -9 -4 -11
3 -6 15 9 15 12 0 28 -7 7 -35 39 -61 71 -27 31 -52 55 -57 52 -5 -3 -12 0
-16 6 -4 8 -3 9 4 5 7 -4 12 -3 12 1 0 5 -9 14 -21 21 -17 11 -20 11 -13 0z
m58 -56 c2 -4 -4 -8 -14 -8 -10 0 -16 4 -14 8 3 4 9 8 14 8 5 0 11 -4 14 -8z"/>
<path d="M2705 1872 c1 -15 4 -31 6 -37 2 -5 -3 -20 -10 -33 -9 -17 -9 -27 -2
-36 6 -7 8 -16 4 -19 -3 -4 -1 -7 6 -7 7 0 10 -4 7 -8 -3 -5 8 -36 24 -70 15
-33 25 -63 22 -67 -4 -3 2 -3 11 1 17 6 17 8 1 25 -9 10 -13 22 -10 27 9 15
-23 84 -35 76 -7 -4 -7 1 0 15 7 12 8 20 4 19 -4 -2 -9 2 -10 7 -1 6 6 8 15 7
14 -3 14 -1 3 12 -8 9 -11 19 -8 23 4 3 2 12 -5 20 -8 11 -7 12 6 7 9 -3 16
-13 16 -21 0 -8 4 -12 9 -8 5 3 12 1 16 -5 3 -5 11 -10 16 -10 6 0 7 5 4 10
-3 6 -2 10 4 10 5 0 13 -10 16 -21 5 -15 10 -18 15 -9 5 8 9 7 13 -5 5 -10 3
-14 -4 -9 -7 4 -10 1 -7 -7 3 -8 11 -13 17 -11 8 1 9 -2 4 -10 -14 -22 -11
-67 5 -80 13 -11 15 -10 9 5 -4 11 -1 20 8 23 8 4 12 10 9 15 -3 5 0 9 6 9 8
0 9 -7 5 -17 -4 -10 -8 -24 -8 -30 0 -7 -4 -13 -8 -13 -4 0 -7 -9 -6 -20 1
-20 16 -28 18 -10 2 11 2 11 13 53 5 18 4 33 -4 42 -13 15 -35 21 -26 7 7 -12
-12 -38 -21 -29 -4 5 -3 11 3 15 29 18 -26 129 -55 112 -18 -10 -64 17 -54 33
3 6 1 7 -5 3 -11 -6 -16 5 -14 26 1 3 -4 8 -12 11 -9 4 -12 -3 -11 -21z m54
-217 c0 -5 -6 1 -14 15 -8 14 -14 30 -14 35 0 6 6 -1 14 -15 8 -14 14 -29 14
-35z"/>
<path d="M2747 1787 c11 -17 10 -31 0 -38 -12 -8 1 -31 13 -24 4 3 8 -5 9 -18
2 -53 7 -77 18 -88 10 -10 9 -16 -4 -31 -10 -12 -12 -18 -4 -18 7 0 10 -3 8
-7 -3 -5 0 -19 6 -33 5 -14 11 -30 12 -37 2 -6 8 -19 14 -30 10 -17 10 -17 11
0 0 28 1 31 13 46 10 12 9 13 -7 8 -23 -9 -40 12 -24 30 8 11 7 12 -8 7 -14
-4 -16 -3 -5 4 11 8 11 11 0 16 -8 3 -3 3 9 0 l24 -6 -19 28 c-10 16 -13 25
-6 21 13 -8 11 38 -2 51 -4 4 -4 -3 -1 -15 8 -24 -7 -32 -20 -11 -5 7 -3 8 5
3 10 -6 11 -3 2 14 -7 12 -8 21 -4 20 20 -3 27 2 13 11 -13 9 -13 11 0 20 13
9 7 14 -12 11 -4 0 -5 7 -2 17 5 13 4 14 -4 3 -6 -8 -12 -9 -16 -3 -3 5 1 13
10 16 19 7 4 38 -20 42 -10 1 -13 -2 -9 -9z"/>
<path d="M2796 1781 c-4 -6 -2 -11 3 -11 6 0 11 -5 11 -11 0 -5 -5 -7 -11 -3
-8 4 -8 0 0 -15 7 -11 17 -21 24 -21 8 0 6 -4 -3 -10 -13 -9 -13 -11 0 -20 11
-7 11 -10 2 -10 -9 0 -10 -5 -3 -17 5 -10 8 -29 7 -43 -1 -14 0 -29 3 -35 11
-20 9 -34 -6 -39 -21 -8 -7 -25 17 -19 10 3 18 8 18 12 -1 3 3 15 9 27 7 12 8
26 3 34 -5 8 -6 18 -4 22 3 4 0 8 -7 8 -7 0 -9 3 -6 7 4 3 1 13 -6 21 -6 8
-12 29 -12 46 -1 38 -29 94 -39 77z m69 -193 c3 -3 -3 -11 -12 -19 -10 -7 -15
-9 -11 -5 4 5 3 15 -3 22 -7 9 -6 12 5 10 9 -1 18 -5 21 -8z"/>
<path d="M1207 1705 c-88 -35 -173 -98 -160 -118 3 -6 1 -7 -5 -3 -15 9 -57
-55 -81 -125 -25 -74 -26 -259 -1 -244 5 3 6 -5 2 -17 -4 -16 -2 -19 8 -13 8
5 11 4 6 -3 -19 -32 129 -205 167 -194 4 1 7 -2 7 -7 0 -5 8 -11 18 -15 9 -3
37 -13 62 -21 67 -22 219 -18 205 5 -3 5 3 6 14 3 48 -12 241 136 227 174 -3
8 -2 12 3 9 10 -7 32 43 45 102 3 12 8 27 11 32 3 6 0 10 -7 10 -10 0 -10 2
-1 8 14 9 10 108 -7 155 -27 75 -33 86 -41 81 -5 -3 -9 -2 -8 3 4 22 -5 35
-50 81 -45 45 -131 96 -185 109 -48 11 -145 12 -152 2 -4 -8 -9 -8 -13 -1 -4
7 -26 3 -64 -13z"/>
<path d="M107 1474 c-10 -10 -47 -93 -47 -105 0 -5 7 -6 15 -3 8 4 15 10 15
16 0 5 -5 6 -12 2 -7 -5 -8 -3 -3 6 6 10 11 9 22 -5 7 -11 13 -23 13 -28 0 -4
5 -5 10 -2 6 4 2 18 -12 38 -15 21 -18 32 -10 35 7 2 10 8 7 12 -3 5 -2 11 3
14 4 2 8 -6 8 -19 0 -13 -4 -21 -10 -18 -5 3 -6 1 -2 -6 4 -6 12 -9 17 -6 8 6
11 -2 8 -22 0 -3 7 -11 16 -16 14 -7 15 -11 4 -17 -7 -5 -14 -16 -15 -25 -2
-12 3 -14 19 -10 18 5 19 4 7 -5 -13 -10 -13 -11 1 -7 13 4 15 -2 13 -33 -2
-33 0 -38 16 -35 20 4 23 -13 5 -28 -6 -5 -1 -6 10 -2 16 5 18 4 8 -6 -10 -10
-16 -10 -25 -1 -17 17 -33 15 -18 -3 7 -8 9 -15 4 -15 -11 0 18 -20 29 -20 5
0 5 5 1 11 -4 7 1 7 16 -1 18 -10 20 -14 9 -21 -8 -5 -10 -9 -5 -9 5 0 3 -7
-4 -15 -15 -18 1 -20 18 -3 9 9 11 6 7 -11 -2 -12 0 -19 5 -16 5 3 7 -6 4 -20
-3 -16 0 -25 8 -25 8 0 5 -5 -5 -11 -17 -10 -15 -29 4 -29 6 0 8 4 4 9 -3 5
-1 12 4 16 7 4 7 15 1 30 -5 14 -8 25 -5 25 2 0 -2 18 -10 40 -8 22 -14 41
-14 43 1 12 -34 77 -41 77 -6 0 -10 5 -10 11 0 5 5 7 10 4 6 -4 1 10 -10 29
-11 20 -17 36 -14 36 4 0 -1 11 -10 25 -9 13 -16 31 -16 40 0 8 -5 15 -11 15
-5 0 -8 3 -6 8 8 11 -17 64 -26 56z"/>
<path d="M72 1357 c-22 -13 -57 -66 -48 -74 2 -3 -2 -16 -9 -30 -15 -28 -16
-26 57 -102 15 -16 25 -31 23 -35 -3 -3 -2 -4 1 -1 4 2 19 -12 34 -33 40 -55
58 -68 73 -52 9 10 9 11 0 6 -7 -4 -13 -2 -13 4 0 6 -5 8 -11 4 -8 -4 -8 0 0
15 13 23 3 28 -18 9 -11 -11 -13 -10 -7 0 4 7 1 15 -8 18 -9 3 -13 10 -10 15
3 5 -2 12 -10 15 -9 3 -13 11 -9 17 3 5 1 7 -4 4 -14 -9 -37 19 -28 32 3 6 0
8 -8 5 -26 -10 -27 13 -2 24 14 7 25 15 25 19 0 16 -19 37 -27 30 -4 -5 -1
-12 7 -17 8 -5 11 -12 7 -17 -5 -4 -12 -1 -17 7 -9 14 -11 13 -14 -9 0 -5 -5
-13 -10 -18 -5 -5 -6 -3 -2 5 4 7 2 12 -6 12 -10 0 -9 3 2 11 12 8 9 9 -10 4
-14 -3 -20 -3 -15 2 10 8 12 15 21 57 4 24 14 34 14 15 0 -11 2 -11 10 1 5 8
10 20 10 25 0 6 -5 3 -10 -5 -5 -8 -10 -10 -10 -4 0 6 8 18 17 25 9 8 14 9 10
3 -3 -6 8 -18 24 -28 17 -10 28 -20 25 -23 -3 -3 -12 -1 -19 6 -12 9 -14 6
-13 -16 1 -26 11 -42 29 -43 11 0 4 23 -11 35 -9 7 -5 10 14 12 15 0 23 -2 18
-5 -14 -11 -15 -32 -2 -32 9 0 8 -4 -2 -10 -9 -6 -10 -10 -3 -10 6 0 11 -9 10
-20 -1 -11 -5 -20 -10 -20 -4 0 -6 -4 -2 -10 3 -5 12 -7 21 -3 10 4 11 9 4 17
-6 9 -6 16 2 24 9 9 9 12 -1 12 -10 0 -11 3 -2 13 8 10 7 17 -1 25 -9 9 -9 12
2 12 8 1 4 7 -10 15 -27 15 -32 32 -16 54 9 12 8 13 -4 6 -25 -15 -42 -15 -36
1 6 17 7 17 -22 1z"/>
<path d="M70 1300 c-6 -12 -16 -18 -23 -14 -7 4 -9 4 -5 -1 4 -4 3 -16 -2 -25
-7 -13 -6 -20 6 -24 8 -3 12 -2 9 3 -3 5 4 13 16 16 17 6 19 9 8 16 -9 6 -10
12 -4 17 10 7 18 32 10 32 -2 0 -9 -9 -15 -20z"/>
<path d="M2820 1249 c-40 -9 -86 -57 -92 -98 -18 -122 132 -192 215 -101 15
17 28 39 28 50 1 11 2 26 3 33 4 23 -15 64 -38 86 -30 28 -73 39 -116 30z"/>
<path d="M105 1231 c4 -7 2 -17 -3 -24 -14 -17 -10 -62 6 -62 7 0 21 -13 32
-30 11 -16 25 -30 32 -31 43 -4 44 -4 28 -14 -13 -8 -12 -11 4 -23 16 -11 16
-15 4 -28 -12 -12 -11 -16 4 -31 10 -10 21 -19 26 -20 4 -2 6 -6 4 -11 -1 -4
9 -12 23 -19 13 -6 27 -19 31 -30 3 -10 10 -16 15 -12 6 4 6 11 -1 19 -6 7 -7
15 -3 17 4 3 2 3 -4 2 -7 -2 -13 1 -13 6 0 6 5 10 11 10 5 0 7 5 4 10 -4 7
-13 6 -26 -1 -12 -6 -24 -8 -27 -4 -3 3 4 8 16 12 12 3 22 9 22 14 0 13 -14
11 -28 -3 -9 -9 -12 -9 -12 -1 0 7 9 15 20 18 21 7 28 35 9 35 -5 0 -8 -4 -4
-9 3 -5 1 -13 -5 -16 -15 -9 -41 14 -33 28 10 17 11 47 1 53 -4 3 -5 10 -2 16
4 6 3 8 -3 5 -6 -4 -9 -18 -8 -32 2 -14 -1 -25 -6 -25 -6 0 -9 6 -8 13 3 27
-2 47 -12 47 -5 0 -7 -5 -3 -11 4 -7 -2 -7 -17 1 -33 18 -38 24 -12 16 18 -6
21 -4 18 13 -3 14 1 18 12 14 12 -5 12 -7 1 -15 -11 -8 -10 -9 1 -6 8 2 15 11
17 20 1 11 -6 14 -28 12 -17 -2 -27 0 -23 6 3 6 2 10 -3 10 -6 0 -13 -7 -16
-16 -3 -8 -2 -12 3 -9 5 3 12 1 15 -4 4 -5 -2 -8 -11 -7 -10 2 -19 9 -19 17
-1 8 -3 17 -4 22 -6 19 -5 33 4 38 5 4 -1 12 -14 19 -16 9 -20 9 -15 1z m12
-38 c-4 -3 -2 -11 3 -18 7 -8 5 -12 -4 -12 -8 0 -12 7 -11 16 5 22 4 21 12 21
3 0 3 -3 0 -7z m122 -187 c11 -14 6 -15 -27 -7 -4 1 8 21 12 21 2 0 9 -6 15
-14z"/>
<path d="M394 885 c4 -11 10 -32 13 -47 3 -16 9 -28 14 -28 5 0 8 -3 7 -7 -4
-15 14 -73 22 -73 4 0 7 -6 6 -12 -2 -21 35 -118 44 -118 5 0 7 -7 4 -15 -4
-10 0 -15 12 -16 11 0 14 -3 8 -5 -14 -6 70 -200 85 -197 6 2 8 -4 5 -12 -3
-8 4 -28 15 -44 12 -16 21 -34 21 -41 0 -7 7 -10 15 -6 8 3 15 2 15 -2 0 -4
14 -9 31 -10 19 -2 28 2 24 8 -3 5 -2 10 4 10 5 0 11 -4 13 -9 4 -12 69 -17
86 -7 7 4 12 2 12 -5 0 -7 3 -9 7 -6 9 10 -28 48 -40 40 -6 -3 -7 -1 -3 5 4 7
-2 22 -13 34 -12 12 -21 25 -21 30 0 4 -7 8 -16 8 -8 0 -13 4 -10 9 3 4 -3 16
-13 25 -15 14 -20 14 -25 4 -3 -7 -3 -3 0 10 4 16 1 22 -11 22 -9 0 -13 4 -10
10 3 5 -5 21 -18 34 -13 13 -27 31 -30 41 -4 9 -12 13 -19 9 -7 -4 -10 -4 -6
1 8 9 -22 65 -34 65 -4 0 -8 6 -8 13 0 8 -17 31 -37 53 -21 21 -32 35 -25 30
8 -5 2 10 -13 33 -24 35 -30 39 -44 29 -13 -10 -14 -10 -3 2 17 20 15 33 -4
26 -13 -5 -14 -3 -7 6 7 9 -1 30 -25 68 -19 30 -31 46 -28 35z m146 -238 c0
-2 -10 -12 -22 -23 l-23 -19 19 23 c18 21 26 27 26 19z m20 -21 c0 -2 -8 -10
-17 -17 -16 -13 -17 -12 -4 4 13 16 21 21 21 13z m25 -54 c-3 -3 -11 0 -18 7
-9 10 -8 11 6 5 10 -3 15 -9 12 -12z m20 -31 c3 -5 2 -12 -3 -15 -5 -3 -9 1
-9 9 0 17 3 19 12 6z m-25 -17 c0 -8 -19 -13 -24 -6 -3 5 1 9 9 9 8 0 15 -2
15 -3z m15 -24 c-3 -5 -12 -10 -18 -10 -7 0 -6 4 3 10 19 12 23 12 15 0z m-5
-36 c0 -8 -19 -13 -24 -6 -3 5 1 9 9 9 8 0 15 -2 15 -3z m37 -11 c0 -9 -4 -10
-14 -2 -7 6 -13 12 -13 14 0 1 6 2 13 2 8 0 14 -6 14 -14z m-2 -33 c3 -5 1
-10 -4 -10 -6 0 -11 5 -11 10 0 6 2 10 4 10 3 0 8 -4 11 -10z m62 -15 c0 -8
-4 -12 -9 -9 -5 3 -6 10 -3 15 9 13 12 11 12 -6z m0 -38 c0 -8 -6 -14 -14 -14
-9 0 -10 4 -2 14 6 7 12 13 14 13 1 0 2 -6 2 -13z m40 -42 c0 -8 -4 -12 -9 -9
-5 3 -6 10 -3 15 9 13 12 11 12 -6z m57 -26 c3 -3 -4 -5 -14 -6 -11 -1 -22 2
-24 6 -5 8 30 8 38 0z"/>
<path d="M2632 802 c-50 -45 -76 -86 -29 -46 20 17 20 16 -2 -9 -24 -27 -38
-36 -26 -18 12 21 -15 20 -29 -1 -9 -12 -16 -18 -16 -13 0 4 -11 -2 -25 -15
-13 -12 -22 -26 -20 -31 3 -4 0 -11 -6 -15 -8 -4 -9 -3 -5 4 4 7 2 12 -3 12
-6 0 -11 -3 -11 -8 0 -4 -8 -12 -19 -17 -52 -27 -119 -80 -114 -89 4 -6 3 -8
-2 -4 -14 13 -44 -11 -40 -32 2 -12 0 -18 -6 -15 -5 4 -7 11 -4 16 4 5 1 9 -4
9 -6 0 -11 -4 -11 -10 0 -5 -6 -10 -12 -10 -10 0 -69 -36 -127 -77 -2 -2 -2
-5 1 -8 6 -6 152 47 156 57 2 4 10 4 18 1 8 -3 14 0 14 7 0 6 5 8 10 5 6 -3
10 -2 10 4 0 6 7 7 17 4 12 -5 14 -3 8 7 -5 8 -4 11 3 7 15 -10 43 3 35 16 -4
6 -1 7 6 3 13 -8 71 11 71 24 0 3 6 7 14 7 26 0 76 25 69 36 -3 5 -1 7 5 3 13
-8 105 38 95 48 -4 4 1 4 11 0 15 -6 17 -2 13 25 -3 17 -1 31 4 31 5 0 9 5 9
11 0 5 -6 7 -12 3 -10 -6 -10 -4 -2 7 12 15 25 119 15 119 -3 0 -30 -22 -59
-48z m-22 -102 c0 -5 -5 -10 -11 -10 -5 0 -7 5 -4 10 3 6 8 10 11 10 2 0 4 -4
4 -10z m-44 -66 c1 -9 0 -13 -4 -10 -3 4 -7 14 -8 22 -1 9 0 13 4 10 3 -4 7
-14 8 -22z m-36 8 c0 -5 -7 -9 -15 -9 -8 0 -12 4 -9 9 3 4 9 8 15 8 5 0 9 -4
9 -8z m-99 -25 c-10 -9 -11 -8 -5 6 3 10 9 15 12 12 3 -3 0 -11 -7 -18z m30
-10 c-10 -9 -11 -8 -5 6 3 10 9 15 12 12 3 -3 0 -11 -7 -18z m-31 -11 c0 -2
-6 -9 -14 -15 -11 -9 -16 -9 -22 0 -4 7 -3 9 4 5 6 -3 13 -2 17 4 6 10 15 14
15 6z m25 -16 c-3 -5 -12 -10 -18 -10 -7 0 -6 4 3 10 19 12 23 12 15 0z m-89
-35 c1 -8 -2 -15 -6 -15 -5 0 -8 9 -7 20 1 21 10 18 13 -5z m-36 -21 c0 -8
-19 -13 -24 -6 -3 5 1 9 9 9 8 0 15 -2 15 -3z"/>
<path d="M2090 420 c-13 -8 -12 -10 3 -10 9 0 17 5 17 10 0 12 -1 12 -20 0z"/>
<path d="M2026 323 c-8 -8 -13 -9 -41 -12 -8 0 -15 -5 -15 -10 0 -6 9 -8 20
-6 12 2 18 0 15 -6 -4 -5 -10 -7 -15 -4 -5 3 -11 1 -15 -5 -12 -19 24 -10 38
10 8 11 16 18 19 15 2 -3 5 2 5 10 0 17 -1 18 -11 8z"/>
<path d="M1906 291 c-4 -5 -15 -8 -26 -6 -13 2 -18 0 -14 -7 4 -6 -1 -8 -15
-3 -12 4 -21 2 -21 -4 0 -6 5 -10 12 -8 7 1 12 -4 13 -12 0 -8 5 -16 11 -18 7
-2 11 6 10 19 0 13 4 23 9 23 6 0 17 4 25 9 9 6 7 1 -4 -12 -11 -12 -14 -22
-8 -22 6 0 18 10 26 22 9 12 16 17 16 11 0 -7 7 -10 15 -6 9 3 13 8 10 11 -10
11 -53 13 -59 3z"/>
<path d="M1807 263 c-3 -5 1 -19 10 -33 8 -14 12 -17 9 -8 -3 12 -1 15 10 11
17 -6 19 -23 2 -23 -15 0 -1 -13 17 -16 8 -1 15 2 15 7 0 6 5 7 10 4 6 -3 10
-11 10 -16 0 -6 -4 -7 -10 -4 -5 3 -15 -3 -22 -14 -10 -17 -13 -18 -23 -4 -9
12 -11 10 -10 -10 0 -14 4 -29 9 -34 5 -5 6 -3 2 5 -4 7 -1 12 8 12 8 0 16 4
18 9 2 5 29 30 61 56 56 45 66 68 27 62 -10 -2 -25 -9 -34 -16 -8 -7 -21 -9
-27 -5 -7 4 -9 3 -6 -3 4 -6 1 -16 -7 -22 -11 -9 -15 -8 -21 6 -5 10 -7 23 -6
28 2 6 -1 7 -5 3 -4 -4 -13 -3 -20 3 -7 5 -14 6 -17 2z m143 -25 c-12 -10 -26
-16 -30 -13 -4 3 -11 -2 -14 -11 -3 -8 -11 -12 -17 -8 -15 9 36 50 63 50 19 0
19 -1 -2 -18z"/>
<path d="M1770 252 c-8 -3 -26 -13 -40 -22 -26 -19 -29 -20 -57 -20 -16 -1
-16 -2 2 -16 18 -13 21 -13 32 3 10 13 13 14 13 2 1 -8 7 -3 15 11 13 25 58
39 49 15 -3 -7 2 -15 11 -19 10 -3 13 -11 8 -18 -12 -20 -13 -41 -1 -55 7 -9
7 -13 -1 -13 -6 0 -11 5 -11 12 0 6 -9 3 -20 -7 -22 -20 -19 -35 3 -17 10 9
14 8 14 -1 0 -16 -27 -18 -44 -5 -8 7 -11 4 -10 -11 1 -12 5 -21 10 -21 4 0 5
-5 1 -11 -4 -8 -9 -7 -15 2 -5 8 -9 10 -9 6 0 -4 -11 5 -25 20 -13 15 -25 23
-25 17 0 -6 9 -19 20 -29 25 -22 26 -40 3 -30 -10 4 -23 8 -30 8 -7 0 -10 4
-7 8 2 5 12 5 22 2 15 -6 15 -5 3 11 -14 16 -16 17 -27 1 -7 -9 -16 -16 -21
-16 -4 -1 -10 -3 -12 -5 -4 -4 26 -8 42 -5 4 0 7 -4 7 -10 0 -5 4 -8 9 -4 5 3
13 0 16 -5 5 -7 12 -5 21 7 7 10 14 14 14 9 0 -5 7 -3 15 4 8 7 12 17 8 23 -4
6 0 8 10 4 16 -6 41 15 30 26 -3 4 1 7 10 7 12 0 15 8 12 32 -5 39 2 53 20 38
9 -8 15 -8 20 0 4 6 3 9 -2 8 -9 -3 -51 24 -50 32 2 15 -20 36 -33 32z"/>
<path d="M1749 218 c-1 -7 -1 -16 0 -20 0 -5 -3 -9 -9 -9 -5 -1 -14 -3 -20 -4
-5 -1 -12 -4 -15 -5 -14 -7 -31 -4 -44 8 -11 10 -16 10 -29 0 -8 -7 -17 -12
-19 -10 -8 6 -23 1 -23 -9 0 -5 4 -8 9 -5 5 3 12 -2 16 -12 6 -15 8 -15 25 6
11 14 21 18 25 12 4 -6 1 -17 -5 -25 -9 -11 -7 -14 9 -12 16 1 20 6 16 22 -3
11 -2 14 1 8 4 -9 11 -9 30 3 13 9 24 13 24 9 0 -4 8 -1 18 6 16 13 16 12 3
-4 -12 -15 -12 -20 -2 -26 10 -6 9 -10 -3 -14 -9 -4 -16 -12 -16 -18 0 -7 8
-5 19 5 11 10 17 25 14 34 -5 11 -3 13 8 7 8 -4 11 -5 7 0 -4 4 -3 14 4 22 8
11 7 12 -6 7 -9 -4 -16 -3 -15 2 3 19 -1 34 -11 34 -5 0 -11 -6 -11 -12z m-99
-32 c0 -2 -6 -9 -14 -15 -11 -9 -16 -9 -22 0 -4 7 -3 9 4 5 6 -3 13 -2 17 4 6
10 15 14 15 6z"/>
<path d="M1542 150 c-24 -23 -37 -26 -26 -7 6 10 4 10 -7 0 -7 -7 -21 -13 -31
-13 -10 0 -18 -4 -18 -10 0 -5 7 -7 15 -4 8 4 15 1 15 -6 0 -6 5 -8 10 -5 6 4
7 11 4 17 -5 7 -2 8 7 2 23 -14 41 -14 35 1 -3 8 0 17 6 21 6 4 8 3 5 -3 -3
-5 0 -10 8 -10 8 0 11 5 8 10 -3 6 -1 7 6 3 9 -6 9 -11 0 -22 -9 -10 -9 -14 0
-14 6 0 14 7 17 15 6 14 8 14 18 0 8 -10 15 -12 26 -5 8 5 11 10 6 10 -5 0 -3
8 5 18 12 16 12 16 -5 1 -14 -13 -22 -14 -42 -5 -13 6 -24 14 -24 19 0 13 -16
8 -38 -13z"/>
<path d="M1730 160 c0 -5 -3 -9 -7 -7 -5 1 -8 -2 -8 -8 0 -5 4 -9 8 -7 5 1 6
-1 3 -6 -3 -5 -15 -8 -28 -7 -12 1 -33 -4 -47 -11 -17 -9 -29 -10 -37 -3 -8 7
-14 6 -19 -1 -4 -6 -15 -8 -26 -5 -12 4 -19 2 -19 -7 0 -8 -3 -9 -8 -3 -9 13
-32 17 -32 6 0 -14 37 -20 49 -8 8 8 11 6 11 -5 0 -35 80 -20 94 18 6 15 9 15
29 -5 13 -11 27 -21 33 -21 5 0 3 4 -5 9 -11 7 -10 13 7 31 11 12 18 28 15 36
-6 16 -13 18 -13 4z m-117 -65 c4 -8 1 -17 -5 -21 -7 -5 -8 -2 -3 6 6 10 4 12
-10 6 -15 -5 -16 -4 -5 9 15 19 16 19 23 0z"/>
</g>
</svg>
