<?xml version="1.0" standalone="no"?>
<!DOCTYPE svg PUBLIC "-//W3C//DTD SVG 20010904//EN"
 "http://www.w3.org/TR/2001/REC-SVG-20010904/DTD/svg10.dtd">
<svg version="1.0" xmlns="http://www.w3.org/2000/svg"
 width="1000.000000pt" height="1000.000000pt" viewBox="0 0 1000.000000 1000.000000"
 preserveAspectRatio="xMidYMid meet">
<metadata>
Created by potrace 1.11, written by Peter Selinger 2001-2013
</metadata>
<g transform="translate(0.000000,1000.000000) scale(0.100000,-0.100000)"
fill="#000000" stroke="none">
<path d="M4538 8053 c-238 -192 -551 -487 -508 -478 14 2 79 18 145 36 66 17
127 32 135 34 8 2 65 15 125 29 66 14 154 44 220 74 61 27 178 75 260 107 83
32 154 61 158 65 9 7 -134 73 -327 152 -66 26 -121 48 -123 48 -1 0 -40 -30
-85 -67z"/>
<path d="M5685 7993 c-65 -15 -291 -82 -420 -125 -502 -167 -1029 -417 -1495
-708 -291 -181 -677 -466 -898 -664 -80 -71 -172 -156 -262 -243 l-95 -91 34
-119 c200 -700 563 -1451 989 -2048 213 -298 404 -525 652 -777 l185 -188 40
11 c323 86 640 190 820 268 11 5 61 26 110 46 50 21 113 48 142 61 28 13 57
24 62 24 6 0 11 5 11 10 0 6 6 10 13 10 33 0 441 219 636 341 51 33 95 59 97
59 2 0 26 15 52 33 26 18 90 62 142 97 52 36 97 67 100 70 3 3 21 17 40 30 36
25 246 186 267 205 6 5 33 28 59 50 73 60 218 188 226 199 7 11 -46 63 -124
121 -159 118 -387 177 -536 138 -121 -32 -252 -107 -412 -237 -72 -59 -129
-114 -327 -318 -184 -189 -408 -318 -667 -383 -201 -51 -453 -55 -646 -10 -36
9 -81 19 -100 24 -45 10 -158 55 -235 94 -264 131 -500 368 -636 640 -39 77
-103 252 -113 311 -3 16 -11 55 -18 85 -7 34 -12 128 -12 241 0 166 3 197 28
303 116 499 471 889 955 1047 205 67 478 86 681 47 290 -56 551 -191 750 -389
123 -122 190 -214 290 -403 122 -230 230 -387 349 -505 101 -100 123 -117 195
-151 109 -51 269 -58 421 -19 78 20 315 127 315 142 0 4 -25 79 -56 165 -227
642 -544 1233 -958 1788 -92 123 -286 364 -331 411 -5 6 -49 53 -97 105 -126
138 -195 209 -199 208 -2 -1 -13 -3 -24 -6z m-60 -344 c75 -28 138 -87 177
-167 30 -60 33 -75 33 -152 -1 -73 -5 -93 -30 -143 -37 -74 -114 -146 -186
-172 -82 -30 -189 -27 -259 7 -193 95 -261 316 -151 489 91 144 255 198 416
138z"/>
<path d="M5454 7500 c-133 -31 -173 -212 -66 -300 109 -90 282 -11 282 128 0
77 -40 136 -112 167 -40 16 -56 17 -104 5z"/>
<path d="M6120 7723 c0 -2 42 -54 94 -116 212 -254 472 -625 641 -917 98 -170
118 -201 111 -175 -91 337 -244 751 -397 1073 -56 119 -58 122 -91 123 -18 0
-69 2 -113 5 -119 7 -245 11 -245 7z"/>
<path d="M4078 7475 c-3 -3 -14 -7 -25 -9 -82 -16 -425 -129 -653 -216 -162
-61 -169 -64 -385 -163 -93 -43 -177 -81 -187 -84 -9 -3 -19 -15 -22 -28 -8
-30 -20 -405 -14 -405 5 0 24 16 83 68 176 156 520 409 825 604 81 52 330 198
338 198 9 0 59 39 51 40 -3 0 -8 -2 -11 -5z"/>
<path d="M7101 6425 c11 -44 27 -107 35 -140 8 -33 24 -101 34 -151 10 -50 32
-120 48 -155 37 -80 130 -316 171 -434 18 -49 34 -91 35 -93 9 -8 176 408 176
437 0 27 -276 360 -447 540 l-71 76 19 -80z"/>
<path d="M4642 5944 c-261 -55 -470 -247 -544 -499 -26 -92 -33 -257 -13 -345
66 -294 288 -506 585 -559 71 -13 220 -6 291 13 178 48 338 167 434 326 114
188 131 444 43 649 -77 179 -251 336 -443 397 -96 31 -253 39 -353 18z"/>
<path d="M2533 5403 c-33 -76 -77 -182 -98 -235 l-38 -97 41 -53 c105 -136
536 -598 547 -586 2 2 -9 45 -25 96 -16 50 -47 167 -70 259 -22 93 -55 197
-72 233 -45 96 -142 324 -179 421 -17 46 -35 88 -39 92 -4 4 -34 -54 -67 -130z"/>
<path d="M7448 5109 c-204 -31 -257 -298 -82 -408 77 -49 202 -38 264 22 49
48 73 104 73 168 0 136 -121 239 -255 218z"/>
<path d="M3080 4508 c0 -13 96 -293 144 -422 123 -326 325 -748 361 -753 26
-3 145 -11 270 -19 l100 -6 -41 44 c-206 216 -547 682 -763 1042 -39 65 -71
117 -71 114z"/>
<path d="M7110 4323 c-176 -155 -457 -366 -670 -506 -151 -99 -329 -207 -340
-207 -5 0 -11 -4 -15 -10 -6 -9 26 -1 141 37 94 32 267 93 289 103 11 5 74 31
140 58 245 102 522 236 522 255 0 6 3 37 6 67 4 30 9 89 12 130 3 41 8 89 10
107 3 18 1 34 -3 36 -4 3 -45 -29 -92 -70z"/>
<path d="M6010 3459 c-36 -11 -137 -38 -225 -60 -116 -29 -204 -60 -320 -110
-206 -90 -310 -133 -325 -134 -3 0 -9 -3 -15 -6 -5 -4 -41 -16 -78 -29 -82
-27 -82 -26 78 -89 61 -24 119 -47 130 -51 11 -5 57 -22 102 -38 l83 -30 47
36 c27 20 50 38 53 41 3 4 39 33 80 66 60 48 166 139 266 230 81 73 204 197
192 194 -2 0 -32 -9 -68 -20z"/>
<path d="M5368 2502 c-17 -3 -18 -36 -18 -523 l0 -520 33 3 32 3 0 517 c0 554
2 531 -47 520z"/>
<path d="M6948 2502 l-28 -3 0 -520 0 -519 29 0 c23 0 28 4 28 23 1 73 0 72
47 23 42 -43 56 -50 116 -60 36 -6 97 18 130 49 36 34 67 105 79 181 13 82 6
288 -13 353 -32 113 -104 175 -198 170 -50 -3 -81 -20 -124 -66 l-30 -33 1
200 c1 111 -1 202 -4 203 -3 2 -18 1 -33 -1z m245 -378 c19 -9 41 -29 50 -44
28 -46 46 -150 46 -255 -1 -222 -48 -321 -151 -317 -106 5 -157 118 -152 344
3 163 33 244 99 274 40 18 68 17 108 -2z"/>
<path d="M2701 2484 c-56 -39 -58 -136 -5 -171 41 -26 100 -25 133 3 36 30 45
63 31 114 -8 28 -20 44 -40 55 -38 20 -90 19 -119 -1z"/>
<path d="M7467 2479 c-17 -24 -12 -51 13 -74 16 -15 22 -15 47 -3 31 15 40 46
23 77 -15 28 -64 28 -83 0z"/>
<path d="M2206 2474 c-135 -43 -216 -147 -216 -278 0 -110 80 -209 226 -279
111 -54 143 -77 163 -117 36 -69 9 -138 -65 -166 -56 -21 -169 -14 -238 16
-26 11 -51 20 -56 20 -7 0 -40 -125 -40 -151 0 -26 115 -58 224 -64 209 -9
353 85 384 253 27 152 -40 256 -228 350 -118 60 -170 106 -170 151 0 115 116
147 311 85 13 -5 20 8 33 60 21 87 21 95 -11 107 -48 19 -66 21 -168 25 -72 3
-114 -1 -149 -12z"/>
<path d="M3117 2484 c-1 -1 -29 -5 -61 -8 -33 -3 -64 -10 -69 -15 -10 -10 -15
-977 -5 -986 14 -14 277 -21 353 -10 71 11 139 34 185 63 140 89 168 295 56
407 -24 23 -60 49 -80 56 -44 16 -45 23 -6 39 41 17 94 80 108 129 44 144 -35
267 -197 311 -36 9 -276 21 -284 14z m245 -175 c36 -26 59 -76 52 -114 -15
-84 -74 -124 -181 -125 l-62 0 1 129 c0 149 -5 142 96 135 44 -3 73 -10 94
-25z m-55 -394 c47 -7 96 -42 117 -84 19 -36 15 -120 -8 -153 -33 -49 -108
-74 -212 -69 l-32 1 0 150 c0 120 3 152 14 158 15 9 51 8 121 -3z"/>
<path d="M4522 2445 c-155 -36 -245 -217 -245 -490 0 -115 8 -180 36 -266 50
-159 141 -240 269 -241 69 -1 137 14 139 31 0 3 2 15 4 25 5 29 -4 37 -26 25
-11 -6 -47 -13 -79 -16 -168 -15 -272 150 -271 432 1 185 33 305 102 380 61
66 157 82 239 40 26 -13 28 -13 39 11 17 37 15 41 -31 58 -62 22 -116 25 -176
11z"/>
<path d="M2664 1833 l1 -366 90 1 c50 1 93 1 98 2 4 0 7 164 7 365 l0 365 -99
0 -98 0 1 -367z"/>
<path d="M4918 2180 c-56 -30 -100 -96 -113 -169 -3 -14 -7 -37 -10 -51 -13
-59 -5 -256 14 -328 37 -140 135 -211 251 -179 74 20 137 102 155 202 4 22 9
49 12 60 5 29 4 195 -2 230 -31 168 -95 247 -209 252 -46 3 -70 -2 -98 -17z
m161 -68 c40 -29 57 -63 71 -142 12 -64 15 -221 5 -270 -14 -73 -19 -88 -37
-121 -47 -85 -161 -93 -212 -15 -40 62 -61 249 -43 385 8 59 37 132 62 157 37
38 108 40 154 6z"/>
<path d="M5672 2185 c-93 -48 -135 -158 -136 -355 -1 -184 34 -297 108 -348
110 -76 237 -33 296 100 28 64 34 112 34 253 0 194 -41 297 -137 347 -42 21
-126 23 -165 3z m154 -70 c58 -38 89 -164 81 -333 -5 -125 -21 -181 -62 -229
-26 -30 -39 -36 -83 -41 -48 -4 -54 -2 -86 30 -47 47 -68 124 -71 263 -2 119
13 218 42 268 36 62 119 82 179 42z"/>
<path d="M6232 2180 c-18 -11 -42 -36 -53 -55 -24 -40 -26 -42 -26 -17 0 74
-3 82 -28 82 -14 0 -26 -3 -26 -7 -1 -5 -2 -169 -3 -365 l-1 -358 32 0 33 0 1
218 c1 119 1 221 0 225 -3 21 22 143 35 168 39 77 144 86 180 17 25 -48 26
-67 27 -355 l0 -273 32 0 33 0 0 238 c0 294 7 345 55 405 31 38 108 42 146 6
37 -34 43 -90 43 -376 l0 -273 33 0 33 0 -2 293 c-2 317 -7 352 -57 408 -24
27 -36 32 -91 36 -75 5 -116 -15 -150 -73 l-21 -36 -19 36 c-37 72 -135 99
-206 56z"/>
<path d="M7756 2185 c-60 -23 -68 -32 -50 -60 l15 -23 39 19 c80 39 157 19
178 -46 17 -52 23 -176 8 -180 -6 -2 -40 -6 -75 -10 -146 -14 -220 -84 -227
-213 -5 -87 16 -152 62 -192 67 -58 181 -38 227 40 23 37 25 36 29 -16 3 -34
7 -39 31 -42 20 -3 27 1 28 15 0 10 1 134 1 276 1 303 -7 359 -57 407 -30 29
-41 33 -102 36 -44 3 -82 -1 -107 -11z m198 -437 c-1 -46 -7 -95 -13 -110 -6
-16 -8 -28 -5 -28 13 0 -30 -62 -56 -82 -37 -27 -66 -32 -102 -17 -38 15 -59
53 -65 113 -13 132 55 204 193 206 l51 0 -3 -82z"/>
<path d="M7479 2188 c-1 -2 -2 -166 -3 -365 l-1 -363 32 0 c19 0 33 5 34 13 1
16 1 655 0 690 -1 23 -5 27 -31 27 -16 0 -31 -1 -31 -2z"/>
<path d="M3911 2073 c-55 -27 -75 -87 -46 -143 57 -110 230 -38 191 79 -20 62
-87 91 -145 64z"/>
</g>
</svg>
