<?xml version="1.0" encoding="utf-8"?>
<!-- Generator: Adobe Illustrator 30.2.1, SVG Export Plug-In . SVG Version: 9.03 Build 0)  -->
<svg version="1.0" id="Capa_1" xmlns="http://www.w3.org/2000/svg" xmlns:xlink="http://www.w3.org/1999/xlink" x="0px" y="0px"
	 viewBox="0 0 268 268" style="enable-background:new 0 0 268 268;" xml:space="preserve">
<style type="text/css">
	.st0{fill:#085FA6;}
</style>
<g transform="translate(0.000000,268.000000) scale(0.100000,-0.100000)">
	<path class="st0" d="M1116,2375c-83-69-177-157-173-161c1-2,49,8,107,22c94,22,340,112,340,124c0,6-173,80-187,80
		C1198,2440,1159,2411,1116,2375z"/>
	<path class="st0" d="M1530,2355c-135-43-286-103-414-165c-274-133-552-325-747-516l-67-65l32-102c103-327,256-623,460-892
		c75-99,108-136,216-248l85-88l148,46c305,94,546,214,808,402c117,84,225,173,234,193c16,36-116,110-211,118c-52,4-69,1-115-23
		c-71-35-139-88-219-171c-113-116-174-157-300-200c-84-29-272-26-360,5c-258,91-424,329-414,597c11,307,262,561,569,577
		c143,8,280-35,399-123c70-51,130-127,192-240c60-111,137-207,196-243c78-48,192-42,307,17c37,19,38,10-16,156
		c-81,222-254,528-422,745c-90,116-220,255-239,254C1642,2389,1588,2374,1530,2355z M1640,2235c47-24,74-71,73-128
		c-2-109-112-174-210-124c-94,49-96,193-3,250C1533,2253,1603,2254,1640,2235z"/>
	<path class="st0" d="M1543,2177c-29-15-43-39-43-72c0-56,61-87,112-57c15,9,29,21,29,27c6,46,4,59-12,79
		C1608,2181,1570,2191,1543,2177z"/>
	<path class="st0" d="M1846,2272c-3-2,28-45,68-96c79-99,168-229,235-343c42-70,55-87,46-60c-53,171-99,295-166,445l-23,52l-50,1
		c-28,1-63,2-78,3C1863,2276,1848,2275,1846,2272z"/>
	<path class="st0" d="M825,2126c-124-41-290-108-365-146l-35-18l-3-86c-1-47,0-86,3-86s44,32,91,70c92,75,336,241,419,284
		C1005,2181,975,2176,825,2126z"/>
	<path class="st0" d="M2250,1745c0-33,47-196,84-290c24-60,47-119,51-130c8-22,14-12,61,112l23,62l-64,78
		C2317,1685,2251,1757,2250,1745z"/>
	<path class="st0" d="M1180,1511c-140-50-212-145-213-286c-2-167,122-297,289-302c122-3,213,46,277,148c46,76,49,205,7,288
		C1472,1488,1310,1557,1180,1511z"/>
	<path class="st0" d="M327,1332c-3-9-21-55-41-101l-35-85l42-50c64-76,198-216,208-216c5,0,4,10-1,23c-6,12-21,63-34,112
		c-13,50-44,139-70,198c-25,59-46,112-46,117C350,1347,332,1349,327,1332z"/>
	<path class="st0" d="M2371,1156c-54-30-66-97-25-145c21-26,33-31,67-31c45,1,67,13,85,47c28,51,9,107-43,129
		C2413,1173,2402,1173,2371,1156z"/>
	<path class="st0" d="M550,894c2-49,174-463,199-479c4-2,43-7,86-10c90-8,90-18,0,90c-76,91-154,199-223,309
		C578,859,550,899,550,894z"/>
	<path class="st0" d="M2210,794c-41-36-136-105-210-154c-74-50-144-97-155-105c-27-20,179,54,290,103c153,68,155,70,156,105
		c0,18,2,51,5,75c3,23,1,42-3,41C2289,859,2251,829,2210,794z"/>
	<path class="st0" d="M1715,446c-44-12-136-44-205-72s-134-54-145-58c-18-7-16-9,13-21c18-8,64-26,102-39l69-25l78,64
		c115,94,200,175,183,174C1802,468,1759,458,1715,446z"/>
</g>
</svg>
