<?xml version="1.0" standalone="no"?>
<!DOCTYPE svg PUBLIC "-//W3C//DTD SVG 20010904//EN"
 "http://www.w3.org/TR/2001/REC-SVG-20010904/DTD/svg10.dtd">
<svg version="1.0" xmlns="http://www.w3.org/2000/svg"
 width="268.000000pt" height="268.000000pt" viewBox="0 0 268.000000 268.000000"
 preserveAspectRatio="xMidYMid meet">
<metadata>
Created by potrace 1.11, written by Peter Selinger 2001-2013
</metadata>
<g transform="translate(0.000000,268.000000) scale(0.100000,-0.100000)"
fill="#000000" stroke="none">
<path d="M1116 2375 c-83 -69 -177 -157 -173 -161 1 -2 49 8 107 22 94 22 340
112 340 124 0 6 -173 80 -187 80 -5 0 -44 -29 -87 -65z"/>
<path d="M1530 2355 c-135 -43 -286 -103 -414 -165 -274 -133 -552 -325 -747
-516 l-67 -65 32 -102 c103 -327 256 -623 460 -892 75 -99 108 -136 216 -248
l85 -88 148 46 c305 94 546 214 808 402 117 84 225 173 234 193 16 36 -116
110 -211 118 -52 4 -69 1 -115 -23 -71 -35 -139 -88 -219 -171 -113 -116 -174
-157 -300 -200 -84 -29 -272 -26 -360 5 -258 91 -424 329 -414 597 11 307 262
561 569 577 143 8 280 -35 399 -123 70 -51 130 -127 192 -240 60 -111 137
-207 196 -243 78 -48 192 -42 307 17 37 19 38 10 -16 156 -81 222 -254 528
-422 745 -90 116 -220 255 -239 254 -10 0 -64 -15 -122 -34z m110 -120 c47
-24 74 -71 73 -128 -2 -109 -112 -174 -210 -124 -94 49 -96 193 -3 250 33 20
103 21 140 2z"/>
<path d="M1543 2177 c-29 -15 -43 -39 -43 -72 0 -56 61 -87 112 -57 15 9 29
21 29 27 6 46 4 59 -12 79 -21 27 -59 37 -86 23z"/>
<path d="M1846 2272 c-3 -2 28 -45 68 -96 79 -99 168 -229 235 -343 42 -70 55
-87 46 -60 -53 171 -99 295 -166 445 l-23 52 -50 1 c-28 1 -63 2 -78 3 -15 2
-30 1 -32 -2z"/>
<path d="M825 2126 c-124 -41 -290 -108 -365 -146 l-35 -18 -3 -86 c-1 -47 0
-86 3 -86 3 0 44 32 91 70 92 75 336 241 419 284 70 37 40 32 -110 -18z"/>
<path d="M2250 1745 c0 -33 47 -196 84 -290 24 -60 47 -119 51 -130 8 -22 14
-12 61 112 l23 62 -64 78 c-88 108 -154 180 -155 168z"/>
<path d="M1180 1511 c-140 -50 -212 -145 -213 -286 -2 -167 122 -297 289 -302
122 -3 213 46 277 148 46 76 49 205 7 288 -68 129 -230 198 -360 152z"/>
<path d="M327 1332 c-3 -9 -21 -55 -41 -101 l-35 -85 42 -50 c64 -76 198 -216
208 -216 5 0 4 10 -1 23 -6 12 -21 63 -34 112 -13 50 -44 139 -70 198 -25 59
-46 112 -46 117 0 17 -18 19 -23 2z"/>
<path d="M2371 1156 c-54 -30 -66 -97 -25 -145 21 -26 33 -31 67 -31 45 1 67
13 85 47 28 51 9 107 -43 129 -42 17 -53 17 -84 0z"/>
<path d="M550 894 c2 -49 174 -463 199 -479 4 -2 43 -7 86 -10 90 -8 90 -18 0
90 -76 91 -154 199 -223 309 -34 55 -62 95 -62 90z"/>
<path d="M2210 794 c-41 -36 -136 -105 -210 -154 -74 -50 -144 -97 -155 -105
-27 -20 179 54 290 103 153 68 155 70 156 105 0 18 2 51 5 75 3 23 1 42 -3 41
-4 0 -42 -30 -83 -65z"/>
<path d="M1715 446 c-44 -12 -136 -44 -205 -72 -69 -28 -134 -54 -145 -58 -18
-7 -16 -9 13 -21 18 -8 64 -26 102 -39 l69 -25 78 64 c115 94 200 175 183 174
-8 -1 -51 -11 -95 -23z"/>
</g>
</svg>
