<svg xmlns="http://www.w3.org/2000/svg" viewBox="0 0 1112.03 87.69"><defs><style>.cls-1{fill:#4a4a4a;}</style></defs><title>11Recurso 1</title><g id="Capa_2" data-name="Capa 2"><g id="Capa_1-2" data-name="Capa 1"><path class="cls-1" d="M0,1.34H26.51q18.12,0,26.31,5.16T61,22.9q0,7.63-3.59,12.53a14.31,14.31,0,0,1-9.52,5.88v.59q8.1,1.8,11.68,6.75C62,52,63.16,56.34,63.16,61.82q0,11.67-8.42,18.18T31.87,86.53H0ZM18.06,35.08H28.55q7.35,0,10.63-2.28c2.2-1.51,3.3-4,3.3-7.51,0-3.27-1.2-5.61-3.58-7s-6.17-2.13-11.34-2.13h-9.5Zm0,14.33v22.2H29.83q7.47,0,11-2.85T44.4,60q0-10.6-15.15-10.61Z"/><path class="cls-1" d="M83.82,86.53V1.34h18.06V86.53Z"/><path class="cls-1" d="M203.92,43.82q0,21.15-10.49,32.51T163.36,87.69q-19.58,0-30.06-11.36T122.81,43.7q0-21.27,10.52-32.48T163.48,0q19.64,0,30,11.3T203.92,43.82Zm-62.17,0q0,14.26,5.42,21.5t16.19,7.23Q185,72.55,185,43.82T163.48,15q-10.78,0-16.26,7.26T141.75,43.82Z"/><path class="cls-1" d="M293.3,43.12q0,21.09-11.45,32.25t-33,11.16H225.3V1.34h26.1q19.87,0,30.89,11T293.3,43.12Zm-10.49.35q0-16.66-8.36-25.11T249.6,9.9H235.21V78h12.06q17.7,0,26.62-8.71T282.81,43.47Z"/><path class="cls-1" d="M315.08,86.53V1.34H325V86.53Z"/><path class="cls-1" d="M401.8,1.34h10.66l-30.7,85.19H372L341.43,1.34h10.49L371.5,56.46a155.57,155.57,0,0,1,5.36,18.47,153.7,153.7,0,0,1,5.48-18.82Z"/><path class="cls-1" d="M476.46,86.53H429V1.34h47.49v8.8H438.88V37.58h35.31v8.74H438.88V77.67h37.58Z"/><path class="cls-1" d="M507,51.1V86.53h-9.91V1.34h23.36q15.68,0,23.17,6t7.48,18.07q0,16.89-17.13,22.84l23.14,38.28H545.36L524.73,51.1Zm0-8.51h13.57q10.49,0,15.39-4.16t4.89-12.5q0-8.44-5-12.18t-16-3.73H507Z"/><path class="cls-1" d="M625.12,63.86q0,11.25-8.15,17.54t-22.15,6.29q-15.15,0-23.3-3.9V74.23a60.54,60.54,0,0,0,11.42,3.5A59.59,59.59,0,0,0,595.17,79q9.92,0,14.92-3.76a12.32,12.32,0,0,0,5-10.45,13.37,13.37,0,0,0-1.78-7.26,16.55,16.55,0,0,0-5.94-5.22,83.68,83.68,0,0,0-12.67-5.41q-11.9-4.26-17-10.08t-5.1-15.21A18.93,18.93,0,0,1,580,5.94Q587.42.12,599.6.11A57.68,57.68,0,0,1,623,4.78l-3.09,8.62A52.85,52.85,0,0,0,599.37,9q-7.87,0-12.3,3.38a11.15,11.15,0,0,0-4.43,9.38A14.37,14.37,0,0,0,584.28,29a15.4,15.4,0,0,0,5.5,5.19,68.81,68.81,0,0,0,11.86,5.21q13.4,4.77,18.44,10.26C623.44,53.29,625.12,58,625.12,63.86Z"/><path class="cls-1" d="M644.89,86.53V1.34h9.9V86.53Z"/><path class="cls-1" d="M748.76,43.12q0,21.09-11.45,32.25T704.36,86.53h-23.6V1.34h26.1q19.88,0,30.89,11T748.76,43.12Zm-10.49.35q0-16.66-8.36-25.11T705.06,9.9h-14.4V78h12.07q17.7,0,26.62-8.71T738.27,43.47Z"/><path class="cls-1" d="M822.44,86.53l-10.61-27.1H777.69L767.2,86.53h-10L790.86,1h8.33l33.5,85.54Zm-13.69-36-9.91-26.4q-1.92-5-4-12.29a111.55,111.55,0,0,1-3.67,12.29l-10,26.4Z"/><path class="cls-1" d="M917.15,43.12q0,21.09-11.45,32.25t-33,11.16h-23.6V1.34h26.1q19.88,0,30.88,11T917.15,43.12Zm-10.49.35q0-16.66-8.36-25.11T873.44,9.9H859.05V78h12.06q17.71,0,26.63-8.71T906.66,43.47Z"/><path class="cls-1" d="M930.11,82c0-3.8,1.55-5.71,4.66-5.71s4.78,1.91,4.78,5.71-1.59,5.71-4.78,5.71S930.11,85.79,930.11,82Z"/><path class="cls-1" d="M993.78,15.15q-10.2,0-15.79,7.66T972.4,44.17q0,28.49,21.38,28.49,9,0,21.74-4.49V83.33a60.42,60.42,0,0,1-23.43,4.36q-18.58,0-28.43-11.27t-9.85-32.37q0-13.27,4.84-23.28A34.89,34.89,0,0,1,972.54,5.45Q981.6.11,993.78.11a57.19,57.19,0,0,1,24.94,6L1012.9,20.8a96,96,0,0,0-9.62-4A28.58,28.58,0,0,0,993.78,15.15Z"/><path class="cls-1" d="M1112,43.82q0,21.15-10.49,32.51t-30.07,11.36q-19.58,0-30.07-11.36T1030.92,43.7q0-21.27,10.51-32.48T1071.59,0q19.64,0,30,11.3T1112,43.82Zm-62.18,0q0,14.26,5.42,21.5t16.2,7.23q21.62,0,21.62-28.73T1071.59,15q-10.78,0-16.26,7.26T1049.85,43.82Z"/></g></g></svg>