<svg xmlns="http://www.w3.org/2000/svg" viewBox="0 0 228.62 80.01"><defs><style>.cls-1{fill:#002a2b;}</style></defs><title>by-nc</title><g id="Layer_2" data-name="Layer 2"><g id="Lineamientos"><g id="layer1"><g id="g325"><g id="g5908"><g id="g5706"><path id="path5708" class="cls-1" d="M60.92,16a28.8,28.8,0,0,1,8.64,21.34,28.3,28.3,0,0,1-8.48,20.93,29.32,29.32,0,0,1-21.34,8.86,28.58,28.58,0,0,1-20.93-8.8,28.69,28.69,0,0,1-8.78-21A29.2,29.2,0,0,1,18.83,16,28.39,28.39,0,0,1,39.77,7.36,28.76,28.76,0,0,1,60.92,16ZM22.7,20a23.79,23.79,0,0,0-7.31,17.39,23.46,23.46,0,0,0,7.23,17.15,23.53,23.53,0,0,0,17.2,7.22,24,24,0,0,0,17.37-7.3,22.77,22.77,0,0,0,7-17.07A23.62,23.62,0,0,0,57.11,20a23.54,23.54,0,0,0-17.26-7.12A23.08,23.08,0,0,0,22.7,20ZM35.5,34.32A3.58,3.58,0,0,0,32.17,32q-3.95,0-4,5.34t4,5.33A3.81,3.81,0,0,0,35.88,40l3.62,2a8.41,8.41,0,0,1-7.81,4.61,8.6,8.6,0,0,1-6.43-2.45,9.27,9.27,0,0,1-2.37-6.77,9.16,9.16,0,0,1,2.48-6.75,8.4,8.4,0,0,1,6.21-2.51,8.3,8.3,0,0,1,8,4.32Zm17.12,0A3.53,3.53,0,0,0,49.37,32c-2.68,0-4,1.73-4,5.18s1.35,5.22,4,5.33A3.68,3.68,0,0,0,53,39.84l3.74,1.95A8.39,8.39,0,0,1,49,46.4,8.56,8.56,0,0,1,42.54,44,9.31,9.31,0,0,1,40,37.34a9.19,9.19,0,0,1,2.67-6.88A8.3,8.3,0,0,1,48.92,28a8.27,8.27,0,0,1,8,4.32Z"/></g></g><path class="cls-1" d="M115.16,67.13a1.33,1.33,0,0,0,.48-1.15,1.38,1.38,0,0,0-.16-.72,1.14,1.14,0,0,0-.42-.45,1.91,1.91,0,0,0-.62-.22h-3.38v2.94h2.8A2,2,0,0,0,115.16,67.13Z"/><path class="cls-1" d="M114.15,69.34h-3v3.47h3a5.08,5.08,0,0,0,.78,0,2,2,0,0,0,.66-.27A1.33,1.33,0,0,0,116,72a1.82,1.82,0,0,0,.16-.8,1.62,1.62,0,0,0-.56-1.38A2.39,2.39,0,0,0,114.15,69.34Z"/><path class="cls-1" d="M224.32,0H4.3A4.29,4.29,0,0,0,0,4.27V78.94A1,1,0,0,0,.85,80H227.66a1,1,0,0,0,1-1h0V4.27A4.31,4.31,0,0,0,224.32,0ZM118.58,73a3.23,3.23,0,0,1-1,1.15,4.41,4.41,0,0,1-1.44.67,6.55,6.55,0,0,1-1.65.21h-6.14V62.38h6a8.24,8.24,0,0,1,1.65.16,3.44,3.44,0,0,1,1.28.53,2.4,2.4,0,0,1,.83,1,3.35,3.35,0,0,1,.29,1.5,2.61,2.61,0,0,1-.42,1.6,3.24,3.24,0,0,1-1.28,1,3,3,0,0,1,1.76,1.17,3.85,3.85,0,0,1,.21,3.68Zm8.27-2.82V75h-2.67V70.09l-4.64-7.71h3.12l3,5,2.93-5h3.1ZM172.56,75h-2.67l-5.33-8.45h0V75h-2.67V62.38h2.67l5.33,8.45h0V62.38h2.67Zm13.09-2.66A5.21,5.21,0,0,1,184.48,74a4.86,4.86,0,0,1-1.71,1,6.18,6.18,0,0,1-2.13.35,6.42,6.42,0,0,1-2.67-.51A5.69,5.69,0,0,1,176,73.45a6.17,6.17,0,0,1-1.22-2.08,7.59,7.59,0,0,1-.43-2.67A7.82,7.82,0,0,1,174.8,66,6.24,6.24,0,0,1,176,64,5.7,5.7,0,0,1,178,62.59a6.77,6.77,0,0,1,4.59-.21,5.15,5.15,0,0,1,1.65.88,4.77,4.77,0,0,1,1.2,1.41,5.17,5.17,0,0,1,.61,2h-2.66a2.52,2.52,0,0,0-.32-.88,2.4,2.4,0,0,0-.62-.69,2.84,2.84,0,0,0-1.81-.64,3.17,3.17,0,0,0-1.6.37,3.08,3.08,0,0,0-1.07,1,4.27,4.27,0,0,0-.58,1.39,6.61,6.61,0,0,0-.19,1.6,6.13,6.13,0,0,0,.19,1.54,4.11,4.11,0,0,0,.58,1.36,3,3,0,0,0,1.07,1,3.28,3.28,0,0,0,1.6.38,2.67,2.67,0,0,0,2-.78,3.62,3.62,0,0,0,.88-2h2.67a6.45,6.45,0,0,1-.51,2.13ZM226.7,56H69.35a33.83,33.83,0,0,1-59.18,0H2V4.27A2.35,2.35,0,0,1,4.3,1.92h220a2.34,2.34,0,0,1,2.37,2.32V56Z"/><g id="g6379"><path id="path6383" class="cls-1" d="M174.77,6.45a21.34,21.34,0,0,1,15.71,6.4,21.4,21.4,0,0,1,6.43,15.69,21,21,0,0,1-6.3,15.52,21.84,21.84,0,0,1-15.84,6.61,21.29,21.29,0,0,1-15.55-6.51,21.3,21.3,0,0,1-6.53-15.57,21.62,21.62,0,0,1,6.53-15.74A21.13,21.13,0,0,1,174.77,6.45Zm-17.1,16.17a17.67,17.67,0,0,0-1,5.94A17.37,17.37,0,0,0,162,41.26a17.47,17.47,0,0,0,12.78,5.33,17.73,17.73,0,0,0,12.88-5.33,17,17,0,0,0,3-3.92L182.4,33.6a6.4,6.4,0,0,1-6.08,4.91v3.41h-2.67V38.54A10.47,10.47,0,0,1,167,35.87l3-3.07a6.61,6.61,0,0,0,4.93,2c1.31,0,2.67-.5,2.67-2.18a1.68,1.68,0,0,0-.59-1.34l-2.11-.93-2.66-1.17-3.5-1.55Zm17.15-12.19a17.11,17.11,0,0,0-12.72,5.33,20.63,20.63,0,0,0-2.45,2.91L168,22.48a6,6,0,0,1,5.76-3.81V15.15h2.67v3.52a9.5,9.5,0,0,1,5.55,2l-3,2.85a6.72,6.72,0,0,0-3.79-1.31c-1.09,0-2.67.35-2.67,1.71a.88.88,0,0,0,.19.56l2.83,1.25,1.92.86L181,28.19l11.31,5a19.23,19.23,0,0,0,.56-4.72,17.34,17.34,0,0,0-5.33-12.8A17.3,17.3,0,0,0,174.82,10.43Z"/></g><g id="g349"><g id="g353"><path id="path355" class="cls-1" d="M126.63,23.07a1.43,1.43,0,0,0-1.44-1.44h-9a1.44,1.44,0,0,0-1.44,1.44h0V32h2.64V42.67h6.85V32h2.54V23.07Z"/><circle id="circle357" class="cls-1" cx="120.68" cy="17.36" r="3.09"/></g><path id="path359" class="cls-1" d="M120.66,6.45a21.13,21.13,0,0,0-15.55,6.4,21.63,21.63,0,0,0-6.43,15.69,21.35,21.35,0,0,0,6.54,15.57,21.31,21.31,0,0,0,15.44,6.56,21.8,21.8,0,0,0,15.81-6.56,20.94,20.94,0,0,0,6.3-15.52,21.35,21.35,0,0,0-6.4-15.68A21.38,21.38,0,0,0,120.66,6.45Zm0,4a17.32,17.32,0,0,1,12.69,5.3,17.32,17.32,0,0,1,5.34,12.81,16.85,16.85,0,0,1-5.2,12.64,17.73,17.73,0,0,1-12.89,5.33,17.45,17.45,0,0,1-12.77-5.33,17.37,17.37,0,0,1-5.33-12.7,17.63,17.63,0,0,1,5.33-12.8,17.15,17.15,0,0,1,12.88-5.25Z"/></g></g></g></g></g></svg>