<svg xmlns="http://www.w3.org/2000/svg" viewBox="0 0 228.62 80.01"><defs><style>.cls-1{fill:#002a2b;}</style></defs><title>by-sa</title><g id="Layer_2" data-name="Layer 2"><g id="Lineamientos"><g id="layer1"><g id="g287"><g id="g5908"><g id="g5706"><path id="path5708" class="cls-1" d="M60.92,16.13a28.77,28.77,0,0,1,8.64,21.21,28.3,28.3,0,0,1-8.48,20.93,29.32,29.32,0,0,1-21.34,8.86,28.58,28.58,0,0,1-20.93-8.8,28.69,28.69,0,0,1-8.78-21,29.19,29.19,0,0,1,8.8-21.15A28.31,28.31,0,0,1,39.77,7.55,28.77,28.77,0,0,1,60.92,16.13ZM22.7,20a23.81,23.81,0,0,0-7.31,17.34,23.46,23.46,0,0,0,7.23,17.15,23.49,23.49,0,0,0,17.2,7.22,24,24,0,0,0,17.37-7.3,22.77,22.77,0,0,0,7-17.07A23.62,23.62,0,0,0,57.11,20a23.54,23.54,0,0,0-17.26-7.12A23.09,23.09,0,0,0,22.7,20ZM35.5,34.38A3.57,3.57,0,0,0,32.17,32q-3.95,0-4,5.34t4,5.33A3.81,3.81,0,0,0,35.88,40l3.62,2a8.41,8.41,0,0,1-7.81,4.61,8.6,8.6,0,0,1-6.43-2.45,9.27,9.27,0,0,1-2.37-6.77,9.16,9.16,0,0,1,2.48-6.75,8.4,8.4,0,0,1,6.21-2.51,8.3,8.3,0,0,1,8,4.35Zm17.12,0A3.54,3.54,0,0,0,49.37,32c-2.68,0-4,1.78-4,5.34s1.35,5.33,4,5.33A3.68,3.68,0,0,0,53,40l3.74,2A8.39,8.39,0,0,1,49,46.56a8.56,8.56,0,0,1-6.43-2.45A9.28,9.28,0,0,1,40,37.34a9.22,9.22,0,0,1,2.67-6.8A8.3,8.3,0,0,1,48.92,28a8.28,8.28,0,0,1,8,4.35Z"/></g></g><polygon class="cls-1" points="178.5 65.5 176.85 70.11 180.13 70.11 178.53 65.5 178.5 65.5"/><path class="cls-1" d="M115.16,67.13a1.33,1.33,0,0,0,.48-1.15,1.38,1.38,0,0,0-.16-.72,1.07,1.07,0,0,0-.42-.45,1.91,1.91,0,0,0-.62-.22h-3.38v2.94h2.8A2,2,0,0,0,115.16,67.13Z"/><path class="cls-1" d="M114.15,69.34h-3v3.47h3a5.08,5.08,0,0,0,.78,0,2,2,0,0,0,.66-.27A1.33,1.33,0,0,0,116,72a1.82,1.82,0,0,0,.16-.8,1.62,1.62,0,0,0-.56-1.38A2.39,2.39,0,0,0,114.15,69.34Z"/><path class="cls-1" d="M224.32,0H4.27A4.29,4.29,0,0,0,0,4.27V78.94A1,1,0,0,0,.85,80H227.66a1,1,0,0,0,1-1h0V4.37A4.3,4.3,0,0,0,224.4,0ZM118.58,73a3.23,3.23,0,0,1-1,1.15,4.41,4.41,0,0,1-1.44.67,6.55,6.55,0,0,1-1.65.21h-6.14V62.38h6a8.24,8.24,0,0,1,1.65.16,3.44,3.44,0,0,1,1.28.53,2.4,2.4,0,0,1,.83,1,3.35,3.35,0,0,1,.29,1.5,2.61,2.61,0,0,1-.42,1.6,3.24,3.24,0,0,1-1.28,1,3,3,0,0,1,1.73,1.17A3.83,3.83,0,0,1,118.6,73Zm8.27-2.82V75h-2.67V70.09l-4.64-7.71h3.12l3,5,2.93-5h3.1Zm44.85,2.66a3.43,3.43,0,0,1-1,1.28,5,5,0,0,1-1.66.83,7.5,7.5,0,0,1-2.26.29,8.13,8.13,0,0,1-2-.26,5.25,5.25,0,0,1-1.73-.8,3.91,3.91,0,0,1-1.2-1.39,4.2,4.2,0,0,1-.43-2h2.67a2.21,2.21,0,0,0,.24,1.07,1.93,1.93,0,0,0,.61.72,2.6,2.6,0,0,0,.88.4,3.83,3.83,0,0,0,1.07,0h.8a2.94,2.94,0,0,0,.8-.24,1.76,1.76,0,0,0,.61-.48,1.2,1.2,0,0,0,.24-.77,1.11,1.11,0,0,0-.32-.83,2.7,2.7,0,0,0-.85-.53,8.78,8.78,0,0,0-1.2-.38l-1.36-.34a13.16,13.16,0,0,1-1.39-.43,4.56,4.56,0,0,1-1.2-.67,3,3,0,0,1-1.17-2.48,3.33,3.33,0,0,1,.42-1.68,3.94,3.94,0,0,1,1.1-1.2,4.72,4.72,0,0,1,1.52-.72,7,7,0,0,1,1.7-.24,8.09,8.09,0,0,1,1.9.22,4.63,4.63,0,0,1,1.62.72,3.54,3.54,0,0,1,1.12,1.25,3.81,3.81,0,0,1,.43,1.87H169a2.18,2.18,0,0,0-.24-.94,1.55,1.55,0,0,0-.53-.58,2.21,2.21,0,0,0-.77-.3,4.92,4.92,0,0,0-.94,0h-.66a2,2,0,0,0-.62.24,1.52,1.52,0,0,0-.45.46,1.21,1.21,0,0,0-.19.66,1.11,1.11,0,0,0,.14.62,1.23,1.23,0,0,0,.64.5,6.71,6.71,0,0,0,1.14.4l1.92.51,1,.27a4.74,4.74,0,0,1,1.25.58,3.74,3.74,0,0,1,1.07,1.1,3,3,0,0,1,.45,1.73,3.77,3.77,0,0,1-.48,1.6ZM181.81,75l-1-2.8H176L175,75h-2.67l4.77-12.62H180L184.72,75ZM226.7,56.19H69.35a33.82,33.82,0,0,1-59.24,0H1.93V4.29A2.34,2.34,0,0,1,4.27,2h220a2.35,2.35,0,0,1,2.35,2.34Z"/><g id="g6316"><g id="g6320"><path id="path6322" class="cls-1" d="M174.77,6.45a21.13,21.13,0,0,0-15.55,6.4,21.6,21.6,0,0,0-6.53,15.69,21.3,21.3,0,0,0,6.53,15.57,21.36,21.36,0,0,0,15.55,6.56,21.79,21.79,0,0,0,15.81-6.56,20.94,20.94,0,0,0,6.3-15.52,21.33,21.33,0,0,0-6.43-15.68A21.35,21.35,0,0,0,174.77,6.45Zm0,4a17.28,17.28,0,0,1,12.77,5.33,17.32,17.32,0,0,1,5.34,12.8,16.85,16.85,0,0,1-5.2,12.64,17.74,17.74,0,0,1-12.88,5.34A17.44,17.44,0,0,1,162,41.2a17.33,17.33,0,0,1-5.33-12.69A17.61,17.61,0,0,1,162,15.71a17.11,17.11,0,0,1,12.8-5.28Z"/><path id="path6324" class="cls-1" d="M165,25.42a9.42,9.42,0,0,1,9.71-8.54,11.07,11.07,0,0,1,11.39,10.74c0,.4,0,.81,0,1.21a11.23,11.23,0,0,1-10.59,11.83c-.29,0-.59,0-.88,0A9.48,9.48,0,0,1,164.82,32h5.58c.16,3,2.1,4,4.85,4s5.17-2.91,5.17-7.36-1.73-7.15-5.09-7.15a4.35,4.35,0,0,0-4.93,3.67l0,.23H172l-4.38,4.37-4.37-4.37Z"/></g></g><g id="g313"><g id="g317"><path id="path319" class="cls-1" d="M126.63,23.07a1.41,1.41,0,0,0-1.41-1.41h-9.07A1.41,1.41,0,0,0,114.71,23v9h2.64V42.67h6.85V32h2.54V23.07Z"/><circle id="circle321" class="cls-1" cx="120.68" cy="17.36" r="3.09"/></g><path id="path323" class="cls-1" d="M120.66,6.45a21.13,21.13,0,0,0-15.55,6.4,21.63,21.63,0,0,0-6.43,15.69,21.35,21.35,0,0,0,6.54,15.57,21.31,21.31,0,0,0,15.44,6.56,21.8,21.8,0,0,0,15.81-6.56,20.94,20.94,0,0,0,6.3-15.52,21.35,21.35,0,0,0-6.4-15.68A21.38,21.38,0,0,0,120.66,6.45Zm0,4a17.32,17.32,0,0,1,12.69,5.3,17.32,17.32,0,0,1,5.34,12.81,16.85,16.85,0,0,1-5.2,12.64,17.73,17.73,0,0,1-12.89,5.33,17.45,17.45,0,0,1-12.77-5.33,17.37,17.37,0,0,1-5.33-12.7,17.63,17.63,0,0,1,5.33-12.8,17.15,17.15,0,0,1,12.88-5.25Z"/></g></g></g></g></g></svg>