<svg xmlns="http://www.w3.org/2000/svg" viewBox="0 0 228.62 80.01"><defs><style>.cls-1{fill:#002a2b;}</style></defs><title>by</title><g id="Layer_2" data-name="Layer 2"><g id="Lineamientos"><g id="layer1"><g id="g260"><path class="cls-1" d="M224.32,0H4.3A4.29,4.29,0,0,0,0,4.27V78.94A1,1,0,0,0,.85,80H227.66a1,1,0,0,0,1-1h0V4.27A4.31,4.31,0,0,0,224.32,0ZM144.87,73a3.21,3.21,0,0,1-1,1.15,4.61,4.61,0,0,1-1.44.67,6.63,6.63,0,0,1-1.66.21h-6.13V62.38h6a8.31,8.31,0,0,1,1.65.16,3.51,3.51,0,0,1,1.28.53,2.48,2.48,0,0,1,.83,1,3.35,3.35,0,0,1,.29,1.5,2.69,2.69,0,0,1-.43,1.6,3.11,3.11,0,0,1-1.28,1,3,3,0,0,1,1.76,1.17,3.83,3.83,0,0,1,.22,3.68Zm8.27-2.82V75h-2.67V70.09l-4.64-7.71H149l3,5,2.78-5h3.09ZM226.7,56.25H68.89a33.82,33.82,0,0,1-59.23,0H2v-52A2.35,2.35,0,0,1,4.3,2h220a2.35,2.35,0,0,1,2.38,2.32h0Z"/><path class="cls-1" d="M140.47,69.34h-3v3.47h3a5,5,0,0,0,.77,0,2,2,0,0,0,.67-.27,1.3,1.3,0,0,0,.45-.51,1.58,1.58,0,0,0,.16-.8,1.62,1.62,0,0,0-.56-1.38A2.28,2.28,0,0,0,140.47,69.34Z"/><path class="cls-1" d="M141.35,67.13a1.33,1.33,0,0,0,.48-1.15,1.38,1.38,0,0,0-.16-.72,1.14,1.14,0,0,0-.42-.45,1.91,1.91,0,0,0-.62-.22h-3.38v2.94h2.8A2,2,0,0,0,141.35,67.13Z"/><g id="g5908"><g id="g5706"><path id="path5708" class="cls-1" d="M60.41,16.19A28.79,28.79,0,0,1,69,37.34a28.3,28.3,0,0,1-8.48,20.93,29.35,29.35,0,0,1-21.34,8.86,28.66,28.66,0,0,1-20.94-8.8,28.71,28.71,0,0,1-8.74-21,29.11,29.11,0,0,1,8.8-21.15A28.29,28.29,0,0,1,39.26,7.55,28.72,28.72,0,0,1,60.41,16.19ZM22.19,20.08a23.8,23.8,0,0,0-7.3,17.26,23.42,23.42,0,0,0,7.22,17.15,23.51,23.51,0,0,0,17.21,7.22,24,24,0,0,0,17.36-7.3,22.78,22.78,0,0,0,7-17.07A23.55,23.55,0,0,0,56.57,20a23.52,23.52,0,0,0-17.25-7.12A23.11,23.11,0,0,0,22.19,20.08ZM35,34.46A3.59,3.59,0,0,0,31.66,32q-3.94,0-3.94,5.34t3.94,5.33A3.81,3.81,0,0,0,35.37,40L39,42a8.43,8.43,0,0,1-7.82,4.61,8.56,8.56,0,0,1-6.42-2.45,9.27,9.27,0,0,1-2.41-6.77,9.16,9.16,0,0,1,2.49-6.75,8.4,8.4,0,0,1,6.21-2.51,8.31,8.31,0,0,1,8,4.35Zm17.12,0A3.55,3.55,0,0,0,48.86,32q-4,0-4,5.34t4,5.33A3.7,3.7,0,0,0,52.52,40l3.73,2a8.37,8.37,0,0,1-7.79,4.61A8.53,8.53,0,0,1,42,44.11a9.25,9.25,0,0,1-2.4-6.8,9.24,9.24,0,0,1,2.45-6.75,8.34,8.34,0,0,1,6.24-2.5,8.25,8.25,0,0,1,8,4.34Z"/></g></g><g id="g275"><g id="g279"><path id="path281" class="cls-1" d="M151.22,23.07a1.43,1.43,0,0,0-1.41-1.44h-9.07a1.43,1.43,0,0,0-1.41,1.44V32h2.5V42.67h6.86V32h2.5V23.07Z"/><circle id="circle283" class="cls-1" cx="145.27" cy="17.36" r="3.09"/></g><path id="path285" class="cls-1" d="M145.25,6.45a21.13,21.13,0,0,0-15.55,6.4,21.65,21.65,0,0,0-6.54,15.69,21.35,21.35,0,0,0,6.54,15.57,21.34,21.34,0,0,0,15.55,6.56,21.82,21.82,0,0,0,15.81-6.56,20.94,20.94,0,0,0,6.3-15.52A21.9,21.9,0,0,0,145.65,6.51h-.4Zm0,4A17.28,17.28,0,0,1,158,15.76a17.35,17.35,0,0,1,5.34,12.8,16.85,16.85,0,0,1-5.2,12.64,17.74,17.74,0,0,1-12.89,5.34A17.42,17.42,0,0,1,132.5,41.2a17.25,17.25,0,0,1-5.33-12.69,17.61,17.61,0,0,1,5.33-12.8,17.1,17.1,0,0,1,12.8-5.28Z"/></g></g></g></g></g></svg>