<svg xmlns="http://www.w3.org/2000/svg" viewBox="0 0 227.12 80.01"><defs><style>.cls-1{fill:#002a2b;}</style></defs><title>pd</title><g id="Layer_2" data-name="Layer 2"><g id="Lineamientos"><path class="cls-1" d="M114.84,46.72a3.8,3.8,0,0,0-1.36-1.25,4.62,4.62,0,0,0-4.13-.13A3.88,3.88,0,0,0,108,46.59a5.58,5.58,0,0,0-.77,1.79,8.1,8.1,0,0,0-.24,2.08,8.48,8.48,0,0,0,.24,2,5.43,5.43,0,0,0,.77,1.76,4,4,0,0,0,1.36,1.25,4.64,4.64,0,0,0,4.08,0,3.88,3.88,0,0,0,1.36-1.25,5.43,5.43,0,0,0,.77-1.76,7.55,7.55,0,0,0,.24-2,8.1,8.1,0,0,0-.24-2.08A5.33,5.33,0,0,0,114.84,46.72Z"/><path class="cls-1" d="M128.69,32.94a2.88,2.88,0,0,0,.85-.35,1.82,1.82,0,0,0,.59-.67,2.31,2.31,0,0,0,.21-1,2.13,2.13,0,0,0-.69-1.78,3.05,3.05,0,0,0-1.87-.54h-3.9V33h3.82A4.75,4.75,0,0,0,128.69,32.94Z"/><path class="cls-1" d="M129.06,25.66a1.72,1.72,0,0,0,.61-1.5,1.89,1.89,0,0,0-.21-.93,1.58,1.58,0,0,0-.53-.56,2.15,2.15,0,0,0-.8-.29,4.61,4.61,0,0,0-.91,0h-3.34v3.73h3.61A2.68,2.68,0,0,0,129.06,25.66Z"/><path class="cls-1" d="M96,46.86a3.61,3.61,0,0,0-1.44-1.1,5.79,5.79,0,0,0-2.22-.37H89.69v10.3h3.18a4.7,4.7,0,0,0,1.49-.24,3.22,3.22,0,0,0,1.31-.83,4.53,4.53,0,0,0,.91-1.52,6.88,6.88,0,0,0,.34-2.29,9.46,9.46,0,0,0-.24-2.25A4.37,4.37,0,0,0,96,46.86Z"/><path class="cls-1" d="M93.75,27.1a2.76,2.76,0,0,0,1-.35,1.94,1.94,0,0,0,.7-.75,3.19,3.19,0,0,0,0-2.5,1.87,1.87,0,0,0-.7-.75,2.76,2.76,0,0,0-1-.35,7.62,7.62,0,0,0-1.17,0H89.91v4.8h2.67A7.7,7.7,0,0,0,93.75,27.1Z"/><polygon class="cls-1" points="151.09 46.38 148.95 52.38 153.17 52.38 151.11 46.38 151.09 46.38"/><path class="cls-1" d="M61.35,10.48a36.78,36.78,0,0,1,7.59,51.45,36.35,36.35,0,0,1-5.25,5.7H225.92V10.48Zm90.67,9h3.47V35.84H152Zm-14.48,0h3.57V32.86h8v3H137.65Zm-51.23,0h7.31a6.72,6.72,0,0,1,2.66.46A4.9,4.9,0,0,1,98,21.15a4.51,4.51,0,0,1,1,1.68,6.24,6.24,0,0,1,0,3.87,4.67,4.67,0,0,1-1,1.68,4.9,4.9,0,0,1-1.74,1.17,6.72,6.72,0,0,1-2.66.45H89.77v5.84H86.23ZM100.2,53.74a7.35,7.35,0,0,1-1.36,2.67,6.5,6.5,0,0,1-2.29,1.73,7.77,7.77,0,0,1-3.23.61H86.23V42.38h7a8.2,8.2,0,0,1,2.9.5,6.44,6.44,0,0,1,2.35,1.52A7.18,7.18,0,0,1,100,46.91a10.43,10.43,0,0,1,.56,3.55,11.4,11.4,0,0,1-.46,3.28Zm2.11-34.22h3.57V29.68a9.55,9.55,0,0,0,0,1.31,2.53,2.53,0,0,0,1.5,1.92,4.1,4.1,0,0,0,1.73.32,3.35,3.35,0,0,0,2.67-.85,4.14,4.14,0,0,0,.72-2.67V19.52h3.57V29.68a6.21,6.21,0,0,1-1.87,5,8.87,8.87,0,0,1-10.18,0,6.29,6.29,0,0,1-1.82-4.93ZM119,53.93a8.14,8.14,0,0,1-1.57,2.66,7.31,7.31,0,0,1-2.51,1.79,9,9,0,0,1-6.72,0,7.31,7.31,0,0,1-2.51-1.79,8.14,8.14,0,0,1-1.57-2.66,10.09,10.09,0,0,1-.59-3.26A10.24,10.24,0,0,1,104,47.2a8.24,8.24,0,0,1,1.57-2.66,7.13,7.13,0,0,1,2.51-1.84,8.81,8.81,0,0,1,6.58,0,7.13,7.13,0,0,1,2.51,1.84,8,8,0,0,1,1.57,2.67,9.94,9.94,0,0,1,.64,3.49,9.77,9.77,0,0,1-.53,3.26Zm1.44-34.41H128a10,10,0,0,1,2.11.22,4.51,4.51,0,0,1,1.62.66,3.19,3.19,0,0,1,1.07,1.26,4.51,4.51,0,0,1,.37,1.92,3.55,3.55,0,0,1-.56,2.05A4.12,4.12,0,0,1,131,27a3.89,3.89,0,0,1,2.24,1.52,4.58,4.58,0,0,1,.75,2.67,4.49,4.49,0,0,1-.48,2.13,4.41,4.41,0,0,1-1.28,1.47,5.71,5.71,0,0,1-1.84.85,8.6,8.6,0,0,1-2.14.27h-7.95Zm20.06,39.15h-3.34V47.12h0l-4,11.55h-2.67l-4-11.44h0V58.67H123V42.38h5l3.79,11.23h0l3.6-11.23h5Zm14.88,0-1.23-3.62H148l-1.33,3.62h-3.52l6.18-16.29H153l6,16.29Zm10,0h-3.63V42.38h3.63Zm-1.58-23.15a7,7,0,0,1-2.5-1.78,7.87,7.87,0,0,1-1.58-2.67,9.68,9.68,0,0,1-.53-3.33,10,10,0,0,1,.53-3.39,8.21,8.21,0,0,1,1.58-2.67,7.1,7.1,0,0,1,2.5-1.84,8.65,8.65,0,0,1,5.87-.26,7,7,0,0,1,2.13,1.14,6.23,6.23,0,0,1,1.55,1.84,6.73,6.73,0,0,1,.77,2.51h-3.41a2.92,2.92,0,0,0-.4-1.15,3.69,3.69,0,0,0-3.15-1.73,4.18,4.18,0,0,0-2,.48,3.8,3.8,0,0,0-1.36,1.25,5.58,5.58,0,0,0-.77,1.79,8.1,8.1,0,0,0-.24,2.08,7.5,7.5,0,0,0,.24,2,5.22,5.22,0,0,0,.77,1.76,3.88,3.88,0,0,0,1.36,1.25,4.08,4.08,0,0,0,2,.48,3.26,3.26,0,0,0,2.67-1,4.77,4.77,0,0,0,1.12-2.67h3.44a8.48,8.48,0,0,1-.69,2.67,6.83,6.83,0,0,1-1.5,2.11A6.28,6.28,0,0,1,170,35.71a8.09,8.09,0,0,1-2.67.45,8.22,8.22,0,0,1-3.6-.61Zm19.58,23.15h-3.58L173,47.74h0V58.67h-3.39V42.38h3.55l6.77,11h0v-11h3.33Z"/><path class="cls-1" d="M222.88,0H4.19A4.26,4.26,0,0,0,0,4.27V78.94A1,1,0,0,0,.85,80H226.16a1,1,0,0,0,1-1h0V4.27A4.26,4.26,0,0,0,222.88,0ZM4.25,2H222.93a2.33,2.33,0,0,1,2.32,2.34V78H1.93V4.27A2.33,2.33,0,0,1,4.25,2Z"/><path id="text2809" class="cls-1" d="M38,22.56C28,22.56,25.53,32,25.53,40S28,57.5,38,57.5,50.46,48,50.46,40,48,22.56,38,22.56Zm0,6.59a4.21,4.21,0,0,1,1.12.16A1.92,1.92,0,0,1,39.5,32L32.86,44.27A33.75,33.75,0,0,1,32.62,40c0-3.46.24-10.82,5.39-10.82Zm5,5.65a29,29,0,0,1,.4,5.34c0,3.54-.24,10.91-5.33,10.91a5.24,5.24,0,0,1-1.12,0h-.51c-1.15-.48-1.87-1.37-.83-2.94Z"/><path id="path2815" class="cls-1" d="M37.93,9.68a28.44,28.44,0,0,0-21.18,8.83,30.38,30.38,0,0,0-6.69,33.12,30.73,30.73,0,0,0,6.59,9.87,31.43,31.43,0,0,0,9.81,6.67,29.91,29.91,0,0,0,23.1-.06,31.1,31.1,0,0,0,10-6.77A27.5,27.5,0,0,0,66,51.74,31,31,0,0,0,68.2,40,31,31,0,0,0,66,28.32a29.09,29.09,0,0,0-6.48-9.65A29.33,29.33,0,0,0,37.93,9.68Zm0,5.47a23.76,23.76,0,0,1,17.52,7.31,24.31,24.31,0,0,1,5.34,8,25.2,25.2,0,0,1,2,9.54,23.41,23.41,0,0,1-7.1,17.42,25.74,25.74,0,0,1-8.24,5.49,24.06,24.06,0,0,1-9.36,1.9A24.5,24.5,0,0,1,28.68,63a25.6,25.6,0,0,1-8-5.34,25.94,25.94,0,0,1-5.49-8,24.34,24.34,0,0,1,0-18.88,26.5,26.5,0,0,1,5.47-8.35,23.35,23.35,0,0,1,17.41-7.25Z"/></g></g></svg>